<svg width="85" height="88" viewBox="0 0 85 88" fill="none" xmlns="http://www.w3.org/2000/svg">
<g clip-path="url(#clip0_17_2391)">
<path d="M10.712 75.7179C10.7037 75.7122 10.6955 75.7062 10.6872 75.7005C18.7618 62.2888 30.6181 49.634 38.9783 45.1031C38.9827 45.0885 38.9887 45.0738 38.996 45.0591C30.5058 49.4746 18.0619 61.7378 9.30127 74.6794C9.28303 74.6654 9.2649 74.6511 9.24667 74.637C9.2649 74.6511 9.28281 74.6657 9.30094 74.6799C6.04949 79.4833 3.70654 83.7876 2.3089 87.3281C3.00041 87.7432 3.8063 87.9861 4.66789 87.9999C5.90062 84.4819 7.91242 80.3093 10.6869 75.7009C10.6952 75.7067 10.7036 75.7122 10.712 75.7179Z" fill="#FFC700" fill-opacity="0.55"/>
<path d="M4.10491 69.7424C4.1103 69.7487 4.11557 69.7547 4.12106 69.7608C4.11568 69.7547 4.11052 69.7485 4.10513 69.7422C15.3973 59.1777 29.9633 48.8954 38.9292 44.9463C38.9267 44.9358 38.9242 44.9252 38.9215 44.9146C29.8559 48.7366 14.8341 58.4795 3.00007 68.3965C2.98513 68.3773 2.9703 68.3583 2.95536 68.3392C2.9703 68.3583 2.98469 68.3776 2.99963 68.3968C1.94226 69.2829 0.942014 70.144 0 70.9774V73.7877C1.34809 72.4015 2.74573 71.0328 4.10491 69.7424Z" fill="#FFC700" fill-opacity="0.55"/>
<path d="M8.39089 73.9494C8.37342 73.9349 8.35606 73.9204 8.33848 73.9059C17.5707 61.3315 30.4131 49.3745 38.9921 45.0365C38.9799 45.0302 38.9699 45.0235 38.9617 45.0166C30.2632 49.252 16.8988 60.7481 7.03852 72.7692C7.03061 72.7619 7.02248 72.7547 7.01468 72.7475C7.02248 72.7547 7.03039 72.7622 7.0383 72.7696C4.06305 76.3969 1.70593 79.7077 0 82.5725V83.2502C0 84.3023 0.342131 85.2742 0.92015 86.0616C2.46216 82.6549 4.95057 78.5206 8.33826 73.9064C8.35573 73.921 8.37342 73.9349 8.39089 73.9496V73.9494Z" fill="#FFC700" fill-opacity="0.55"/>
<path d="M6.18594 71.96C6.17055 71.945 6.15517 71.9301 6.1399 71.9151C16.4361 60.3071 30.1644 49.1554 38.9455 44.999C38.9422 44.9939 38.94 44.9886 38.9383 44.9832C38.9376 44.9793 38.9369 44.9759 38.9362 44.9722C38.9362 44.9736 38.9362 44.9749 38.9362 44.9763C38.9356 44.9737 38.9354 44.9714 38.9348 44.9688C30.0438 49.0065 15.8195 59.6599 4.93343 70.6703C4.9219 70.6579 4.91058 70.6452 4.89904 70.6328C4.91047 70.6452 4.92168 70.658 4.93321 70.6704C3.08544 72.5393 1.43829 74.3129 0 75.9705V79.5265C1.64968 77.2204 3.70235 74.6634 6.13968 71.9154C6.15495 71.9305 6.17055 71.945 6.18594 71.96Z" fill="#FFC700" fill-opacity="0.55"/>
<path d="M38.8327 44.4377C38.8072 44.4319 38.7885 44.4237 38.7748 44.4133C29.9662 45.7241 14.366 45.2201 -0.00012207 43.1226V44.6798C14.424 46.0113 30.0479 45.902 38.8327 44.4377Z" fill="#FFC700" fill-opacity="0.55"/>
<path d="M39.0048 45.3335C39.0007 45.3237 38.9974 45.314 38.9947 45.3042C31.5157 50.353 23.3757 64.7137 19.6711 80.1739C19.6495 80.167 19.6278 80.1598 19.6062 80.1528C19.6279 80.1598 19.6495 80.1673 19.671 80.1743C19.4732 81.0649 19.2949 81.9248 19.1317 82.7603L21.082 82.0496C21.1592 81.5827 21.2399 81.1175 21.3247 80.6551C21.3377 80.6586 21.3507 80.6616 21.3636 80.6649C21.3507 80.6616 21.3377 80.6584 21.3247 80.655C24.2321 64.9832 31.6946 50.4458 39.0048 45.3335Z" fill="#FFC700" fill-opacity="0.55"/>
<path d="M15.8471 78.6781C15.8258 78.6681 15.8046 78.6582 15.7833 78.6483C21.3707 63.8744 31.1121 50.0871 38.9805 45.2258L38.9756 45.1924C30.9569 49.9659 20.5817 63.4605 14.2479 77.8823C14.2404 77.8783 14.2327 77.8744 14.2252 77.8703C14.2327 77.8744 14.2403 77.8785 14.2479 77.8826C13.0506 80.6087 12.0731 83.1971 11.3115 85.6093L13.7553 84.7189C14.3105 82.7865 14.9856 80.7574 15.7831 78.6489C15.8043 78.6589 15.8258 78.6682 15.8471 78.6781Z" fill="#FFC700" fill-opacity="0.55"/>
<path d="M38.9896 45.2817C38.9892 45.2786 38.9879 45.2756 38.9876 45.2726L38.984 45.249C31.2269 50.1698 21.9488 64.1474 16.9067 79.1485C16.8869 79.1401 16.8669 79.1318 16.8472 79.1232C16.8669 79.1317 16.8867 79.1406 16.9065 79.149C16.3319 80.8587 15.8344 82.517 15.4115 84.1157L17.6386 83.3043C17.936 81.9749 18.2373 80.7767 18.5052 79.7765C18.5166 79.7808 18.5281 79.7845 18.5396 79.7886C18.5283 79.7845 18.5168 79.7803 18.5053 79.7761C22.7731 64.4927 31.3927 50.2797 38.9898 45.2817H38.9896Z" fill="#FFC700" fill-opacity="0.55"/>
<path d="M13.2194 77.3124C13.2039 77.3035 13.1882 77.2946 13.1727 77.2857C20.03 63.1403 30.8496 49.8757 38.9722 45.1684L38.9696 45.1517C38.97 45.1451 38.9718 45.1384 38.9728 45.1318C30.7097 49.7395 19.2817 62.6587 11.709 76.3886C11.6919 76.3775 11.6748 76.366 11.6575 76.3549C11.6746 76.366 11.6917 76.3776 11.7088 76.3888C9.38784 80.7386 7.79892 84.3198 6.7522 87.2705L9.45749 86.2849C10.3746 83.5269 11.6123 80.5048 13.1727 77.286C13.1883 77.2949 13.2041 77.3036 13.2195 77.3125L13.2194 77.3124Z" fill="#FFC700" fill-opacity="0.55"/>
<path d="M38.8306 44.5948C38.8292 44.591 38.8279 44.5872 38.8266 44.5835C29.9981 46.6827 14.3352 49.3815 0 51.2583V52.8672C14.272 50.2187 29.9765 46.8776 38.8375 44.6161C38.8353 44.6089 38.8329 44.6019 38.8306 44.5948Z" fill="#FFC700" fill-opacity="0.55"/>
<path d="M38.8178 44.5588L38.8169 44.5558C38.8169 44.5558 38.8175 44.5564 38.8176 44.5566C38.8174 44.5561 38.8173 44.5556 38.817 44.5551C38.8148 44.5469 38.8254 44.5346 38.848 44.5186C30.0603 46.3492 14.4209 47.9693 0 48.5229V50.1153C14.3684 48.7901 30.0071 46.545 38.8184 44.5601C38.8184 44.5597 38.818 44.5593 38.8178 44.5588Z" fill="#FFC700" fill-opacity="0.55"/>
<path d="M38.9706 44.4492C38.9491 44.4492 38.9288 44.4489 38.9104 44.4478C30.1442 46.0274 14.4748 46.5819 0 45.8003V47.3804C14.4693 47.3847 30.1402 46.2086 38.9089 44.4814C38.927 44.4714 38.9472 44.461 38.9706 44.4493V44.4492Z" fill="#FFC700" fill-opacity="0.55"/>
<path d="M38.85 44.6561C38.8482 44.6505 38.8467 44.6451 38.845 44.6396C29.9546 47.0198 14.2138 50.8298 0.00012207 54.0343V55.6916C14.1137 51.7032 29.9145 47.2218 38.8552 44.6719L38.8501 44.6561H38.85Z" fill="#FFC700" fill-opacity="0.55"/>
<path d="M39.7409 44.4697C30.8017 47.3357 14.2065 53.783 0 59.9346V61.8045C13.7 54.9269 30.0032 47.8247 39.1648 44.6861C39.3014 44.6269 39.4931 44.555 39.7408 44.4697H39.7409Z" fill="#FFC700" fill-opacity="0.55"/>
<path d="M0.613934 64.9582C0.601519 64.938 0.588884 64.9178 0.576469 64.8973C13.6039 56.6667 29.6316 48.3273 38.9123 44.8325C38.9233 44.815 38.951 44.7936 38.9951 44.7681C29.7218 48.0808 13.4453 55.7407 -0.00012207 63.2047V65.2628C0.1905 65.1416 0.382221 65.02 0.576139 64.8974C0.588554 64.9178 0.601519 64.9378 0.613824 64.9581L0.613934 64.9582Z" fill="#FFC700" fill-opacity="0.55"/>
<path d="M2.28439 67.4503C2.27164 67.4329 2.25901 67.4155 2.24648 67.398C14.45 57.9623 29.7825 48.6201 38.9158 44.8914C38.9156 44.8906 38.9154 44.89 38.9151 44.8891L38.908 44.8594C29.6857 48.4544 13.9423 57.2184 1.24976 65.9595C1.24239 65.9485 1.23525 65.9376 1.228 65.9266C1.23525 65.9376 1.24207 65.9488 1.24943 65.9597C0.821488 66.2585 0.405305 66.551 0 66.8375V69.1653C0.71909 68.5893 1.46774 68.0002 2.24593 67.3984C2.25868 67.4158 2.27164 67.4328 2.28439 67.4503Z" fill="#FFC700" fill-opacity="0.55"/>
<path d="M39.8223 44.4099C31.0436 47.0042 14.5413 52.1805 0 56.9052V58.6466C14.8294 52.914 31.9999 46.8038 40.6256 44.1831C40.3187 44.2698 40.0506 44.3456 39.8222 44.4098L39.8223 44.4099Z" fill="#FFC700" fill-opacity="0.55"/>
<path d="M39.0047 45.3968C39.0053 45.3834 39.007 45.37 39.0091 45.3564C31.8245 50.5119 24.8563 65.1512 22.5282 80.9452C22.5218 80.9438 22.5154 80.9425 22.5089 80.941C22.5154 80.9425 22.5217 80.944 22.5281 80.9455C22.4981 81.1494 22.4693 81.3522 22.441 81.5546L24.2688 80.8887C25.8421 65.1184 32.0608 50.571 39.0047 45.3967V45.3968Z" fill="#FFC700" fill-opacity="0.55"/>
<path d="M54.2235 68.1709C54.1912 68.2201 54.1589 68.2691 54.1262 68.3181C43.4651 60.1986 37.747 52.1925 38.494 47.48C38.391 47.9264 38.323 48.4301 38.31 48.9948C38.4918 54.0352 43.8004 61.7734 53.1752 69.6671C53.1547 69.6948 53.1344 69.7226 53.1137 69.75C53.1344 69.7225 53.1557 69.6954 53.1761 69.6678C55.0529 71.2481 56.9993 72.7547 58.9826 74.1759H62.7997C59.8941 72.4104 56.9812 70.4514 54.1272 68.3185C54.1598 68.2696 54.1913 68.2198 54.2236 68.1707L54.2235 68.1709Z" fill="#FFC700" fill-opacity="0.55"/>
<path d="M56.9171 63.1338C56.8961 63.1832 56.8749 63.2324 56.8538 63.2817C44.7655 56.9938 38.0673 50.5352 38.8013 46.6616C38.7514 46.8446 38.7112 47.0296 38.6811 47.2165C38.3432 51.3724 44.7498 58.13 56.1482 64.8103C56.1294 64.8481 56.1108 64.8863 56.092 64.9241C56.1109 64.8863 56.1306 64.8488 56.1493 64.8109C62.7268 68.6656 69.934 71.8889 76.7075 74.1762H80.2555C81.3713 74.1762 82.3962 73.7896 83.2064 73.144C74.8941 71.1851 65.3806 67.7169 56.8549 63.2823C56.8761 63.2332 56.8961 63.1832 56.9171 63.1338Z" fill="#FFC700" fill-opacity="0.55"/>
<path d="M38.4401 46.8987C35.9851 52.2237 40.019 62.7958 49.4204 73.8434C49.4009 73.8615 49.3815 73.8798 49.3619 73.8978C49.3815 73.8798 49.4017 73.8623 49.4212 73.8442C49.5159 73.9554 49.6116 74.0656 49.7067 74.1762H52.0345C51.5507 73.6929 51.0692 73.2023 50.5902 72.7042C50.6346 72.6584 50.6781 72.6117 50.7222 72.5657C50.6781 72.6117 50.6339 72.6576 50.5895 72.7035C39.1573 60.0952 37.5433 52.6673 38.0869 48.7384C38.1636 47.9052 38.3657 47.1517 38.6977 46.4893C38.6084 46.6225 38.5227 46.7593 38.4402 46.8988L38.4401 46.8987Z" fill="#FFC700" fill-opacity="0.55"/>
<path d="M38.7121 46.5596C38.4516 47.1137 38.212 47.8332 38.0869 48.7382C37.5905 54.1274 42.353 62.8508 51.3897 71.8468C51.3693 71.8695 51.3494 71.8924 51.3288 71.9148C51.3492 71.8923 51.3701 71.8703 51.3904 71.8475C52.1868 72.6402 52.9985 73.4166 53.8221 74.1759H56.6916C55.2351 73.018 53.8168 71.8224 52.4539 70.5991C52.4925 70.5511 52.5302 70.5021 52.5688 70.4539C52.5303 70.5022 52.492 70.5505 52.4532 70.5985C40.7442 59.6767 38.2206 52.8858 38.3101 48.9948C38.2775 48.0915 38.4095 47.2748 38.7123 46.5596H38.7121Z" fill="#FFC700" fill-opacity="0.55"/>
<path d="M55.6768 65.7268C55.6504 65.7763 55.6237 65.8259 55.5969 65.8753C44.9462 59.109 38.7997 52.325 38.6112 47.9556C38.3971 55.0461 50.6709 64.4007 54.7654 67.3173C54.7454 67.3501 54.7255 67.383 54.7053 67.4158C54.7255 67.383 54.7463 67.3509 54.7664 67.3181C58.5138 69.888 62.3298 72.1856 66.0837 74.1763H71.4918C66.1387 71.9187 60.6704 69.0984 55.5978 65.876C55.6247 65.8265 55.6504 65.7763 55.677 65.7268H55.6768Z" fill="#FFC700" fill-opacity="0.55"/>
<path d="M59.2422 54.5965C59.2361 54.6411 59.2296 54.6856 59.2236 54.7302C46.9969 52.1284 39.613 48.944 39.0222 46.4517C39.5683 49.5458 46.2603 52.9141 58.9372 56.4712C58.9268 56.5258 58.9164 56.5805 58.9057 56.6348C58.9164 56.5802 58.928 56.5261 58.9386 56.4716C68.2753 58.8942 77.2768 60.4298 85 61.1774V58.2045C76.8114 57.7088 67.6348 56.5197 59.2249 54.7302C59.231 54.6858 59.2361 54.6408 59.2422 54.5962V54.5965Z" fill="#FFC700" fill-opacity="0.55"/>
<path d="M58.7111 57.5565C58.7005 57.6033 58.6895 57.6498 58.6788 57.6965C45.866 53.7078 38.5271 49.2272 38.9494 46.2148C38.9219 46.3575 38.9017 46.501 38.8909 46.6451C38.8468 49.9215 45.9773 54.8338 58.2461 59.3736C58.2321 59.4226 58.218 59.4717 58.2038 59.5206C58.2181 59.4717 58.2333 59.4232 58.2472 59.374C66.9616 62.5984 76.5788 65.0096 84.9999 66.2812V63.3109C76.6796 62.3151 67.2597 60.3677 58.6801 57.6969C58.6908 57.6503 58.7004 57.6032 58.7111 57.5565Z" fill="#FFC700" fill-opacity="0.55"/>
<path d="M57.9324 60.4057C57.9167 60.4542 57.9009 60.5026 57.8851 60.5509C46.4193 55.8153 39.5303 50.8038 38.9012 47.3418C39.4401 52.7189 50.4452 58.8409 57.3123 62.1577C57.2955 62.2012 57.2788 62.2449 57.2619 62.2883C57.2788 62.2447 57.2966 62.2019 57.3135 62.1583C67.2008 66.7021 76.6885 69.7253 84.6067 71.319C84.8591 70.7383 85 70.0979 85 69.4241V68.4137C76.4978 66.9538 66.7128 64.1967 57.8864 60.5514C57.9022 60.503 57.9169 60.4541 57.9325 60.4058L57.9324 60.4057Z" fill="#FFC700" fill-opacity="0.55"/>
<path d="M39.0177 45.6345C39.0182 45.6291 39.0185 45.6237 39.0192 45.6182C39.0181 45.6126 39.018 45.6068 39.0172 45.6011C33.6713 50.5498 31.4651 63.2414 33.7082 77.4498L35.1325 76.9309C32.264 62.9938 33.8952 50.5547 39.0175 45.6345H39.0177Z" fill="#FFC700" fill-opacity="0.55"/>
<path d="M38.266 47.2061C38.1505 47.4199 38.0418 47.6401 37.941 47.8673C35.9562 53.4355 38.9233 63.4755 46.2512 74.1762H48.1991C39.562 63.1364 35.9494 52.6497 38.266 47.2061Z" fill="#FFC700" fill-opacity="0.55"/>
<path d="M39.0147 45.578C39.0137 45.5691 39.0118 45.5601 39.0115 45.5511L39.0113 45.5449C33.2554 50.5503 30.0061 63.709 31.1605 78.3778L32.6627 77.8305C30.8711 63.43 33.5027 50.5498 39.0147 45.578Z" fill="#FFC700" fill-opacity="0.55"/>
<path d="M39.0137 45.6962L39.0139 45.6866C39.0141 45.678 39.0152 45.6693 39.0157 45.6606C34.0491 50.563 32.8184 62.8268 36.1325 76.5663L37.5078 76.0652C33.5718 62.6029 34.256 50.5741 39.0136 45.6962H39.0137Z" fill="#FFC700" fill-opacity="0.55"/>
<path d="M39.006 45.4594L39.0046 45.4376C39.0046 45.4384 39.0049 45.4391 39.0049 45.4396C39.0049 45.4382 39.0047 45.437 39.0046 45.4356C39.0044 45.4315 39.0046 45.4274 39.0046 45.4233C32.2861 50.5647 26.631 64.8432 25.5317 80.4286L27.2404 79.806C27.679 64.483 32.587 50.5574 39.006 45.4594Z" fill="#FFC700" fill-opacity="0.55"/>
<path d="M37.5606 48.8608C35.7004 54.523 37.6843 63.6006 43.2829 74.1758H44.9483C38.6462 64.0339 36.0558 54.5597 37.5606 48.8608Z" fill="#FFC700" fill-opacity="0.55"/>
<path d="M39.0117 45.8072C39.0119 45.7966 39.0111 45.7858 39.0117 45.7754C34.7291 50.5946 35.3385 62.0885 40.8061 74.8637L42.1647 74.3688C36.0509 61.8858 34.9144 50.6026 39.0115 45.8072H39.0117Z" fill="#FFC700" fill-opacity="0.55"/>
<path d="M39.0122 45.7518L39.013 45.7197C34.3994 50.58 34.0999 62.447 38.4831 75.71L39.8367 75.2169C34.8247 62.236 34.5934 50.588 39.0122 45.752V45.7518Z" fill="#FFC700" fill-opacity="0.55"/>
<path d="M29.2561 14.4572C29.2803 14.4602 29.3044 14.4631 29.3287 14.4661C29.3044 14.4631 29.2804 14.4594 29.2561 14.4565C29.5358 9.43381 30.2945 4.52913 31.4151 0H28.8933C28.0234 4.48546 27.53 9.3325 27.5121 14.2944C27.5047 14.2939 27.497 14.2936 27.4895 14.2931C27.497 14.2936 27.5047 14.2943 27.5121 14.2946C27.4641 27.6101 30.8513 38.1361 35.8063 42.1719C36.142 42.4172 36.4875 42.6401 36.8433 42.8397C31.6573 39.4268 28.4739 28.5042 29.2562 14.4571L29.2561 14.4572Z" fill="#FFC700" fill-opacity="0.55"/>
<path d="M84.062 1.91504C75.038 6.25354 61.3567 16.0604 50.6376 26.1261C41.3704 34.8286 36.8528 41.3438 38.1559 43.4081C38.1726 43.4164 38.1902 43.4237 38.2068 43.4318C37.3194 41.4663 42.2148 35.4867 51.7447 27.4703C51.7605 27.4903 51.7761 27.5104 51.7917 27.5304C51.776 27.5104 51.7608 27.49 51.7451 27.4699C62.4797 18.4402 75.848 9.55669 85.0001 5.13701V4.75145C85.0001 3.68828 84.6513 2.70673 84.0623 1.91504H84.062Z" fill="#FFC700" fill-opacity="0.55"/>
<path d="M47.6988 23.1041C47.7116 23.1159 47.7243 23.1274 47.7372 23.1391C47.7243 23.1274 47.7119 23.1155 47.6993 23.1038C54.9694 14.2068 64.1543 5.59924 71.9629 0H66.9465C60.273 5.52905 52.8505 13.3031 46.3974 21.9693C46.3839 21.9579 46.37 21.947 46.3563 21.9357C46.37 21.947 46.3836 21.9583 46.3971 21.9697C36.8586 35.3497 36.6142 40.5904 37.5465 42.6045C37.636 42.7745 37.7378 42.9356 37.8518 43.0881C36.123 40.5103 39.6337 32.9741 47.6988 23.1041Z" fill="#FFC700" fill-opacity="0.55"/>
<path d="M48.599 23.9562C48.5812 23.9386 48.5629 23.9216 48.5448 23.904C48.5629 23.9215 48.5808 23.939 48.5988 23.9564C39.9399 33.7554 36.1456 41.1366 38.0861 43.3661C38.095 43.373 38.1042 43.3795 38.1131 43.3862C38.1181 43.3886 38.1228 43.3915 38.1276 43.3938C36.5419 41.2632 40.768 34.3759 49.8073 25.1991C59.9692 14.8828 73.0528 4.88224 81.9751 0.323187C81.4418 0.115283 80.8623 0 80.2555 0H76.0163C67.6117 5.32357 56.9665 14.4871 48.599 23.9562Z" fill="#FFC700" fill-opacity="0.55"/>
<path d="M41.4933 18.5618C41.5147 18.5741 41.536 18.5861 41.5573 18.5984C34.8609 33.0081 35.3355 39.322 36.9826 42.0861C35.159 38.4822 37.1973 30.1011 43.0234 19.493C46.8949 12.4435 51.7817 5.60881 56.738 0H53.1547C48.8093 5.57361 44.7011 12.1091 41.5575 18.598C41.5362 18.5857 41.5147 18.574 41.4933 18.5618Z" fill="#FFC700" fill-opacity="0.55"/>
<path d="M44.0389 20.174C44.0413 20.1758 44.0437 20.1774 44.0462 20.1792C37.4519 31.177 35.1874 39.6984 37.471 42.7724C37.6291 42.9588 37.792 43.1214 37.9553 43.2633C37.9833 43.2861 38.0108 43.3091 38.0394 43.3313C37.8669 43.1554 37.6924 42.9193 37.5466 42.6044C35.0131 37.79 42.1056 26.1844 45.4331 21.1976C45.453 21.213 45.4729 21.2284 45.4927 21.2439C45.4729 21.2284 45.4533 21.2125 45.4334 21.1973C51.39 12.5932 57.8274 5.34832 63.6985 0H59.4996C54.0089 5.68911 48.459 12.8195 44.0461 20.179C44.0438 20.1774 44.0413 20.1757 44.0388 20.174H44.0389Z" fill="#FFC700" fill-opacity="0.55"/>
<path d="M38.892 17.2155C38.9094 17.2236 38.9268 17.2319 38.9444 17.24C34.2415 29.743 33.8251 39.4616 37.2318 42.7637C37.4797 42.9782 37.7239 43.1563 37.9577 43.304C37.9681 43.3094 37.9784 43.3149 37.9887 43.3204C37.755 43.1441 37.5466 42.9344 37.3625 42.6934C32.6087 37.3678 38.4712 22.6092 40.481 18.0037C40.4946 18.0108 40.5082 18.0179 40.5219 18.0251C40.5082 18.0179 40.4948 18.0104 40.4812 18.0031C43.6098 11.12 47.1447 5.05109 50.7369 0H47.5301C44.242 5.20631 41.2393 11.1388 38.9447 17.2395C38.9273 17.2314 38.9096 17.2237 38.8922 17.2156L38.892 17.2155Z" fill="#FFC700" fill-opacity="0.55"/>
<path d="M36.8083 42.5524C32.8682 38.9423 31.9577 28.7472 35.0544 15.7216C35.0633 15.7243 35.0722 15.7273 35.0811 15.7301C35.0722 15.7273 35.0634 15.7242 35.0545 15.7213C36.3629 10.218 38.2336 4.85474 40.437 0H37.7222C35.8786 4.73451 34.3761 9.92332 33.399 15.2433C33.376 15.2372 33.3527 15.2319 33.3296 15.2259C33.3527 15.2319 33.3759 15.2378 33.399 15.2437C31.1455 27.5135 32.2645 37.3216 35.7965 41.6143C36.1136 41.9579 36.4509 42.271 36.8083 42.5524Z" fill="#FFC700" fill-opacity="0.55"/>
<path d="M36.2066 16.112C36.2114 16.1137 36.2163 16.1156 36.2211 16.1172C31.9037 32.7365 34.1875 39.4634 36.6393 42.1815C33.5652 38.3726 33.781 28.8312 37.8201 16.742C37.8429 16.7517 37.8656 16.7613 37.8882 16.7709C37.8656 16.7612 37.8431 16.7512 37.8203 16.7416C39.7923 10.8398 42.4198 5.09663 45.3534 0H42.4807C39.953 5.05208 37.7817 10.608 36.2211 16.1172C36.2163 16.1156 36.2113 16.1138 36.2065 16.1121L36.2066 16.112Z" fill="#FFC700" fill-opacity="0.55"/>
<path d="M52.471 28.4275C52.4805 28.4406 52.4899 28.4535 52.4994 28.4665C42.8198 35.9802 37.6763 41.568 38.2561 43.4548C38.287 43.4697 38.3181 43.484 38.3494 43.4984C38.21 41.7344 43.6651 36.703 53.4982 29.9033C53.5088 29.9195 53.5196 29.9354 53.5301 29.9516C53.5196 29.9354 53.5092 29.9191 53.4987 29.9031C63.6811 22.862 75.8338 15.809 85 11.4403V7.77686C75.8121 12.2459 62.9947 20.3198 52.4999 28.4661C52.4903 28.4531 52.4805 28.4405 52.4711 28.4274L52.471 28.4275Z" fill="#FFC700" fill-opacity="0.55"/>
<path d="M38.7561 44.3921C38.7556 44.3913 38.7549 44.3906 38.7545 44.3899L38.7422 44.3607C29.8839 45.4238 14.2606 43.867 0 40.4429V42.0073C14.3257 44.6559 29.929 45.5977 38.7561 44.3921Z" fill="#FFC700" fill-opacity="0.55"/>
<path d="M59.2472 45.3118C59.2489 45.3244 59.2504 45.3372 59.252 45.3499C48.1684 46.2566 41.0583 46.296 39.3735 45.6111C39.3216 45.6695 39.2717 45.7298 39.2216 45.7899C40.5437 46.8864 47.8353 47.4644 59.4408 47.1851C59.443 47.2137 59.4453 47.2422 59.4475 47.2708C59.4453 47.2422 59.4437 47.2136 59.4416 47.1851C67.7837 46.9844 76.8653 46.3765 85 45.5427V42.4224C76.8182 43.6008 67.6539 44.6623 59.2526 45.3496C59.2509 45.337 59.249 45.3242 59.2473 45.3117L59.2472 45.3118Z" fill="#FFC700" fill-opacity="0.55"/>
<path d="M58.7088 42.2203C58.7119 42.2346 58.7152 42.2487 58.7183 42.263C48.8284 44.0605 42.1928 45.0381 39.8621 45.105C39.7602 45.2013 39.6615 45.301 39.5649 45.4026C42.2539 45.9618 52.6632 44.8328 59.0609 44.0512C59.0649 44.075 59.0685 44.0988 59.0725 44.1224C59.0685 44.0988 59.0651 44.0749 59.0614 44.0511C68.4099 42.87 77.3413 41.5123 84.9999 40.182V37.0376C76.6886 38.8258 67.2861 40.7061 58.7183 42.2632C58.7153 42.249 58.7118 42.2348 58.7087 42.2204L58.7088 42.2203Z" fill="#FFC700" fill-opacity="0.55"/>
<path d="M59.5198 48.5142C59.5165 48.4332 59.5129 48.352 59.5091 48.2707C59.513 48.3521 59.5152 48.433 59.5185 48.5142C47.5927 48.3072 40.2048 47.2621 39.1447 45.8823C39.1195 45.9132 39.0951 45.9445 39.0705 45.9757C39.7797 47.727 47.257 49.4411 59.5461 50.3596C59.5453 50.4249 59.5444 50.49 59.5433 50.5551C59.5444 50.4899 59.5465 50.425 59.5473 50.3596C67.8564 50.9806 76.892 51.1276 85.0001 50.8664V47.7787C76.8852 48.3695 67.8374 48.6585 59.5198 48.5142Z" fill="#FFC700" fill-opacity="0.55"/>
<path d="M57.9073 39.1952C57.9147 39.2196 57.9223 39.2439 57.9299 39.2682C50.6322 41.3444 45.1847 42.892 42.0189 43.7887C41.9194 43.8256 41.8174 43.865 41.7146 43.9057C41.7108 43.9071 41.7071 43.9085 41.7032 43.91C41.5905 43.9527 41.4831 43.9942 41.3814 44.0354C41.3787 44.0365 41.376 44.0374 41.3733 44.0385C41.3531 44.0467 41.3335 44.0549 41.3138 44.063C41.2777 44.0783 41.2428 44.0935 41.2081 44.1089L41.0939 44.1624C41.0697 44.1746 41.0456 44.1872 41.0217 44.1997C41.0135 44.2039 41.0055 44.2081 40.9975 44.2124C40.7356 44.3825 40.4873 44.5672 40.2506 44.7635C42.8678 44.3673 49.2098 43.0658 58.4194 41.0013C58.4211 41.0083 58.4231 41.0152 58.4249 41.0223C58.4231 41.0152 58.4215 41.0082 58.4197 41.0012C67.0804 39.0597 76.6186 36.8155 85 34.7656V31.5581C76.5075 33.9796 66.7432 36.7609 57.9305 39.2681C57.923 39.2437 57.9147 39.2196 57.9073 39.1952Z" fill="#FFC700" fill-opacity="0.55"/>
<path d="M56.8849 36.3376C56.8904 36.3512 56.8958 36.3648 56.9014 36.3783C47.5587 40.0438 41.4268 42.6823 39.4469 43.8226C39.695 43.8744 39.9471 43.916 40.2033 43.947C42.7667 42.9796 48.7932 40.9202 57.529 38.0483C57.536 38.0683 57.543 38.0885 57.5501 38.1087C57.543 38.0885 57.5367 38.0682 57.5295 38.0481C66.4665 35.1099 76.4205 31.9192 85 29.2284V25.9258C76.2922 28.9929 66.0328 32.7958 56.9018 36.3782C56.8964 36.3647 56.8905 36.3513 56.885 36.3377L56.8849 36.3376Z" fill="#FFC700" fill-opacity="0.55"/>
<path d="M54.1332 30.8993C54.1464 30.921 54.1597 30.9426 54.173 30.9641C44.2713 37.2464 38.6202 41.8745 38.4384 43.5401C38.4678 43.5532 38.497 43.5661 38.5266 43.5789C38.553 43.5874 38.5796 43.5955 38.606 43.6038C39.2705 42.08 45.15 38.0257 55.0561 32.4864C55.0582 32.4906 55.0607 32.4946 55.063 32.4989C55.0607 32.4946 55.0585 32.4904 55.0562 32.4864C64.7569 27.0618 75.9842 21.5188 84.9999 17.5897V14.0322C75.8837 18.2473 64.1465 24.6364 54.1734 30.964C54.1601 30.9424 54.1463 30.921 54.133 30.8995L54.1332 30.8993Z" fill="#FFC700" fill-opacity="0.55"/>
<path d="M38.7726 43.6545C38.896 43.6904 39.0203 43.7239 39.1458 43.7547C41.2781 42.002 50.607 37.7601 56.4039 35.2061C56.4141 35.2289 56.4241 35.252 56.4341 35.2746C56.4241 35.252 56.4145 35.2288 56.4043 35.2059C66.7691 30.6832 76.8244 26.616 85 23.5233V20.0913C76.0698 23.7827 65.1639 28.7709 55.6451 33.6058C45.8165 38.5979 39.8115 42.2356 38.7727 43.6546L38.7726 43.6545Z" fill="#FFC700" fill-opacity="0.55"/>
<path d="M30.4292 14.6216C30.45 14.6251 30.4707 14.6285 30.4916 14.6319C29.2392 31.2562 32.6742 39.7689 36.9573 42.758C36.5456 42.4371 36.1586 42.0542 35.7965 41.6142C31.1629 36.5909 30.7629 25.1751 32.195 14.9557C32.2082 14.9586 32.2214 14.9613 32.2346 14.9643C32.2214 14.9613 32.2083 14.958 32.195 14.9552C33.0923 9.45053 34.3559 4.4408 35.864 0H33.2781C31.9442 4.6882 30.9867 9.69694 30.4916 14.6312C30.471 14.6279 30.45 14.6251 30.4292 14.6216Z" fill="#FFC700" fill-opacity="0.55"/>
<path d="M3.96076 28.3816C4.47659 28.9314 4.67271 29.6649 4.56086 30.3561C16.5824 38.6284 30.245 44.1119 38.6374 44.1279C38.6324 44.118 38.6273 44.1082 38.622 44.0979C29.7046 43.9385 15.0224 37.1257 2.87701 27.2266L3.96087 28.3815L3.96076 28.3816Z" fill="#FFC700" fill-opacity="0.55"/>
<path d="M38.6772 44.1796C38.6672 44.17 38.6585 44.1601 38.6509 44.1495C30.2432 44.2307 16.4344 39.1247 4.17249 31.3198C4.08218 31.4489 3.97769 31.5709 3.85859 31.6829L3.13379 32.3652C15.8464 39.6907 30.1302 44.4025 38.6773 44.1794L38.6772 44.1796Z" fill="#FFC700" fill-opacity="0.55"/>
<path d="M1.76239 26.039L1.76261 26.0393C1.85226 25.9211 1.94159 25.8027 2.03289 25.686C1.94159 25.8027 1.85215 25.921 1.76239 26.039Z" fill="#FFC700" fill-opacity="0.55"/>
<path d="M2.15288 25.5348C2.22286 25.4464 2.29351 25.3589 2.36426 25.2715C14.3758 36.1589 29.4553 43.8079 38.6107 44.0767C38.6091 44.0736 38.6072 44.0704 38.6057 44.0671C38.602 44.0606 38.5983 44.0538 38.5946 44.0471C29.539 43.6352 14.9121 35.4934 3.42878 24.0241C3.43307 24.0196 3.43713 24.0146 3.44131 24.0099C3.43713 24.0146 3.43285 24.0192 3.42856 24.0239C2.20649 22.8033 1.06298 21.5876 0 20.3848V23.0443C0.754688 23.7834 1.5419 24.5259 2.36295 25.2702C2.29219 25.3576 2.22275 25.4464 2.15288 25.5348Z" fill="#FFC700" fill-opacity="0.55"/>
<path d="M4.04361 23.3643C4.10579 23.2994 4.16853 23.2354 4.23126 23.1709C15.3181 35.0358 29.604 43.5137 38.5829 44.0257L38.5797 44.0198C38.5755 44.0124 38.573 44.0044 38.5696 43.9967C29.7039 43.3486 15.9118 34.4235 5.40147 22.0324C5.41488 22.0202 5.42773 22.0074 5.44114 21.9952C5.42773 22.0074 5.41422 22.0193 5.40081 22.0316C3.3366 19.598 1.53322 17.1877 0 14.8511V18.2289C1.33831 19.9302 2.76682 21.5917 4.22983 23.1696C4.16721 23.2339 4.10579 23.2994 4.04361 23.3643Z" fill="#FFC700" fill-opacity="0.55"/>
<path d="M1.18549 34.1991C14.6826 40.6907 29.8891 44.7092 38.7209 44.2306C38.7228 44.2256 38.7235 44.2211 38.7257 44.2161C38.7177 44.2111 38.71 44.2061 38.703 44.2009C30.0429 44.5313 15.3813 40.1012 2.33658 33.1157L1.18549 34.1991Z" fill="#FFC700" fill-opacity="0.55"/>
<path d="M38.7327 44.3379L38.7195 44.3069C29.7854 45.1284 14.1034 42.492 0 37.7075V39.3106C14.2022 43.2971 29.8463 45.2998 38.7327 44.3379Z" fill="#FFC700" fill-opacity="0.55"/>
<path d="M38.7101 44.2852L38.7061 44.2758C38.7075 44.2686 38.7112 44.2609 38.7134 44.2534C29.7461 44.8357 14.1382 41.1266 0.328837 35.0059L0 35.3154V36.5361C14.0195 41.9042 29.7354 45.0064 38.7101 44.2852Z" fill="#FFC700" fill-opacity="0.55"/>
<path d="M20.9696 14.5651C21.1923 14.5317 21.4156 14.5004 21.6401 14.4717C24.315 30.0468 31.3034 41.7801 38.3673 43.6856L38.367 43.6853C38.3603 43.6763 38.3536 43.6677 38.3469 43.6589C31.5044 41.6698 25.2266 29.8996 23.3573 14.3035C23.3843 14.3016 23.4112 14.2999 23.4381 14.2982C23.4113 14.2999 23.3841 14.3011 23.3572 14.303C22.7622 9.33789 22.6745 4.48777 23.0221 0H20.6028C20.4526 4.53309 20.7764 9.44316 21.64 14.4716C21.4156 14.5002 21.1923 14.5317 20.9696 14.5651Z" fill="#FFC700" fill-opacity="0.55"/>
<path d="M59.5087 51.665C59.5107 51.6231 59.5117 51.5809 59.5136 51.539C59.5117 51.581 59.5094 51.6229 59.5074 51.6649C47.0118 50.2221 39.5012 48.0221 39.0347 46.0225C39.0324 46.0254 39.0301 46.0285 39.0278 46.0315C39.6996 49.2791 50.4218 51.86 59.3746 53.4619C59.3685 53.5219 59.3624 53.5818 59.3561 53.6418C59.3624 53.5818 59.3697 53.5222 59.3758 53.4622C68.5606 54.9651 77.3822 55.7911 85 56.0578V53.0481C76.8823 53.0801 67.8298 52.6258 59.5087 51.665Z" fill="#FFC700" fill-opacity="0.55"/>
<path d="M18.7474 14.9857C18.7551 14.984 18.763 14.9824 18.7707 14.9808C22.8036 30.4088 30.9854 41.9881 38.4045 43.7334C38.397 43.7241 38.3894 43.7151 38.3823 43.7056C31.1668 41.8646 23.6765 30.1824 20.4307 14.6529C20.5423 14.634 20.6538 14.6153 20.7658 14.5975C20.6539 14.6151 20.5417 14.6319 20.4302 14.6507C19.3653 9.55503 18.8701 4.58061 18.8846 0H16.4963C16.6656 4.66696 17.4059 9.76008 18.7705 14.9802C18.7628 14.9819 18.7551 14.984 18.7474 14.9857Z" fill="#FFC700" fill-opacity="0.55"/>
<path d="M16.009 15.7559C21.3608 30.8965 30.6934 42.2091 38.437 43.781C38.4315 43.7719 38.4261 43.7628 38.4211 43.7534C30.8626 42.081 22.1938 30.5996 17.6044 15.2738C17.6909 15.2504 17.7774 15.2265 17.8643 15.2036C17.7775 15.2264 17.6903 15.2481 17.6037 15.2716C16.0074 9.94065 15.0836 4.74128 14.7863 -0.000488281H12.3964C12.8675 4.8625 14.0587 10.2382 16.0084 15.7545C15.9896 15.7608 15.9901 15.7619 16.0088 15.7557L16.009 15.7559Z" fill="#FFC700" fill-opacity="0.55"/>
<path d="M6.11133 21.3999C6.16627 21.3525 6.22186 21.3059 6.27724 21.2589C16.3581 34.0053 29.7814 43.2332 38.5609 43.976C38.5585 43.9692 38.5564 43.9622 38.5546 43.955C38.5525 43.9526 38.5502 43.9502 38.548 43.9477C29.8948 43.0752 17.0053 33.449 7.54633 20.2365C7.57039 20.2181 7.59401 20.1993 7.61807 20.1812C7.59401 20.1995 7.5694 20.217 7.54545 20.2353C4.19621 15.5569 1.66517 10.9708 0 6.79004V11.957C1.66561 14.9456 3.76377 18.0807 6.27581 21.2571C6.22043 21.3041 6.16638 21.3525 6.11133 21.3999Z" fill="#FFC700" fill-opacity="0.55"/>
<path d="M24.5714 14.2431C24.5829 14.2427 24.5947 14.2426 24.6062 14.2421C25.8931 29.8231 31.6555 41.5952 38.3327 43.6401L38.3311 43.6382L38.3287 43.6349C38.319 43.6228 38.311 43.6096 38.302 43.5972C37.4349 43.2991 36.6005 42.8188 35.8063 42.172C29.4692 37.539 26.6754 25.0086 26.2502 14.2385C26.2659 14.2389 26.2814 14.2396 26.2968 14.2399C26.2812 14.2395 26.2658 14.2386 26.2502 14.2383C26.1676 9.01734 26.4895 4.25589 27.1262 0H24.778C24.2815 4.47116 24.1982 9.29961 24.6063 14.2418C24.5947 14.2421 24.5832 14.2428 24.5715 14.2432L24.5714 14.2431Z" fill="#FFC700" fill-opacity="0.55"/>
<path d="M13.2793 16.8229C13.3084 16.8098 13.3377 16.7975 13.367 16.7846C19.9897 31.505 30.4256 42.4424 38.4657 43.8286L38.452 43.8069C38.4505 43.805 38.4498 43.8027 38.4485 43.8008C30.5782 42.304 20.7799 31.1362 14.8914 16.1563C14.9584 16.1308 15.0252 16.1048 15.0925 16.0798C15.0252 16.1048 14.9575 16.1289 14.8905 16.1543C12.6613 10.4829 11.2664 4.95979 10.6755 0H8.25555C9.00453 5.10576 10.7038 10.8647 13.3663 16.7831C13.3372 16.7962 13.3084 16.8098 13.2793 16.8229Z" fill="#FFC700" fill-opacity="0.55"/>
<path d="M8.3474 19.6475C8.39442 19.6141 8.44221 19.5816 8.48957 19.5485C17.485 33.0674 29.9734 42.9586 38.5307 43.9268C38.5236 43.9175 38.5169 43.9082 38.5107 43.8985C30.0937 42.8025 18.1803 32.5666 9.85062 18.6498C9.88699 18.6273 9.92291 18.604 9.95928 18.5816C9.92291 18.6041 9.886 18.6256 9.84974 18.6482C6.00071 12.2175 3.49768 5.9692 2.39394 0.624512C1.54861 1.10852 0.866329 1.84466 0.449707 2.7315C1.94865 8.15319 4.90906 14.1303 8.48825 19.5467C8.44089 19.5798 8.39442 19.6141 8.3474 19.6475Z" fill="#FFC700" fill-opacity="0.55"/>
<path d="M10.7405 18.1182C10.7791 18.0961 10.8182 18.0747 10.8569 18.0529C18.6963 32.2308 30.1859 42.6936 38.4969 43.878L38.4953 43.8755C38.4949 43.8748 38.4945 43.874 38.494 43.8733C38.4926 43.8711 38.4907 43.8684 38.4893 43.866L38.4786 43.8491C30.3224 42.5454 19.4405 31.7946 12.3026 17.286C12.3533 17.2609 12.4035 17.2352 12.4543 17.2103C12.4035 17.2352 12.3522 17.2589 12.3016 17.284C9.29136 11.165 7.36053 5.21599 6.50882 0H4.74455C4.51075 0 4.28113 0.0177104 4.05634 0.0503811C5.03351 5.41025 7.31076 11.6393 10.8559 18.0512C10.8172 18.0731 10.7791 18.0961 10.7405 18.1182Z" fill="#FFC700" fill-opacity="0.55"/>
<path d="M39.0099 45.5195L39.0077 45.4844C32.7935 50.5531 28.3965 64.2399 28.431 79.3721L30.0469 78.7833C29.3553 63.9212 33.0688 50.55 39.0099 45.5194V45.5195Z" fill="#FFC700" fill-opacity="0.55"/>
<path d="M38.0139 43.3337C38.0333 43.344 38.0527 43.3546 38.0723 43.3647C38.0672 43.3597 38.0619 43.3542 38.0566 43.349C38.0228 43.3214 37.9891 43.2928 37.9552 43.2634C37.8551 43.1813 37.7589 43.0959 37.6658 43.0073C37.7738 43.1259 37.8892 43.2355 38.0139 43.3337Z" fill="#FFC700" fill-opacity="0.55"/>
<path d="M45.9371 21.594C45.9309 21.5891 45.9248 21.5839 45.9186 21.579C45.9023 21.5659 45.8855 21.5532 45.8691 21.54C45.8917 21.5581 45.9145 21.5759 45.9371 21.594Z" fill="#FFC700" fill-opacity="0.55"/>
<path d="M1.63934 26.2001C2.0486 26.5458 2.46138 26.888 2.87701 27.2266L1.76262 26.0391C1.72174 26.093 1.67988 26.1459 1.63945 26.2001H1.63934Z" fill="#FFC700" fill-opacity="0.55"/>
<path d="M38.6164 44.071C38.6182 44.0729 38.62 44.075 38.6218 44.077C38.6544 44.078 38.6874 44.0794 38.7198 44.0802C38.7017 44.0707 38.6845 44.0607 38.6681 44.0504C38.6498 44.0496 38.6314 44.0486 38.613 44.0479C38.6139 44.0556 38.6147 44.0635 38.6163 44.071H38.6164Z" fill="#FFC700" fill-opacity="0.55"/>
<path d="M38.616 43.9711C38.621 43.9747 38.626 43.9786 38.6312 43.9819C38.6734 43.9853 38.7159 43.989 38.7579 43.992C38.7361 43.9822 38.7146 43.9722 38.6941 43.9614C38.6693 43.9592 38.6445 43.9569 38.6196 43.9546C38.6184 43.96 38.6168 43.9657 38.616 43.9711Z" fill="#FFC700" fill-opacity="0.55"/>
<path d="M38.6111 44.0272C38.6197 44.0276 38.6283 44.0281 38.6369 44.0286C38.6285 44.0226 38.62 44.0166 38.612 44.0103C38.6118 44.0158 38.6109 44.0217 38.611 44.0272H38.6111Z" fill="#FFC700" fill-opacity="0.55"/>
<path d="M38.6237 43.9365C38.6336 43.9376 38.6434 43.9384 38.6535 43.9394C38.6443 43.9343 38.6355 43.9289 38.6266 43.9233C38.6252 43.9279 38.6249 43.932 38.6237 43.9365Z" fill="#FFC700" fill-opacity="0.55"/>
<path d="M38.6505 43.8585C38.6526 43.8588 38.6546 43.8591 38.6568 43.8595C38.6551 43.8585 38.6533 43.8574 38.6515 43.8564C38.6512 43.8571 38.6508 43.8578 38.6505 43.8585Z" fill="#FFC700" fill-opacity="0.55"/>
<path d="M39.3964 45.1042C39.3888 45.1039 39.3821 45.1034 39.3745 45.103C39.345 45.1228 39.3153 45.1433 39.2856 45.1634C39.2664 45.1861 39.2482 45.2087 39.231 45.2314C39.2767 45.1987 39.3225 45.1668 39.3684 45.1349C39.3776 45.1246 39.3869 45.1144 39.3964 45.1041V45.1042Z" fill="#FFC700" fill-opacity="0.55"/>
<path d="M38.7616 44.1494C38.7451 44.1496 38.7281 44.1494 38.7115 44.1497C38.7237 44.157 38.7369 44.1636 38.7503 44.1702C38.7544 44.1632 38.7573 44.1566 38.7616 44.1494Z" fill="#FFC700" fill-opacity="0.55"/>
<path d="M39.2851 44.3086C39.2406 44.3097 39.1985 44.3096 39.1585 44.3086C39.0588 44.3218 38.9568 44.3341 38.8555 44.3465C38.8844 44.354 38.916 44.3602 38.95 44.3648C39.0533 44.3502 39.1566 44.3355 39.2579 44.3203C39.2671 44.3163 39.2754 44.3128 39.285 44.3087L39.2851 44.3086Z" fill="#FFC700" fill-opacity="0.55"/>
<path d="M38.7884 44.1118C38.7801 44.1083 38.772 44.1049 38.7639 44.1014C38.724 44.1011 38.6831 44.0994 38.6429 44.0986C38.6542 44.1092 38.6665 44.1191 38.6799 44.1286C38.7117 44.1286 38.7443 44.1293 38.776 44.1292C38.7799 44.1235 38.7841 44.1177 38.7884 44.1119V44.1118Z" fill="#FFC700" fill-opacity="0.55"/>
<path d="M39.1869 44.3501C39.1389 44.3577 39.0892 44.3651 39.0408 44.3726C39.0693 44.3741 39.0989 44.3752 39.1302 44.3751C39.1486 44.367 39.1671 44.3588 39.1869 44.3501Z" fill="#FFC700" fill-opacity="0.55"/>
<path d="M39.047 44.3019C39.0041 44.2981 38.9646 44.293 38.9281 44.2861C38.8782 44.2911 38.8289 44.2964 38.7787 44.3011C38.7753 44.3057 38.772 44.3106 38.7693 44.315C38.7801 44.3202 38.7919 44.3252 38.8041 44.3297C38.8857 44.3207 38.9666 44.3114 39.047 44.3018V44.3019Z" fill="#FFC700" fill-opacity="0.55"/>
<path d="M39.3408 43.8849C39.343 43.8855 39.3453 43.886 39.3474 43.8865C39.3678 43.8894 39.3883 43.8923 39.4086 43.895C39.3874 43.8909 39.3663 43.8867 39.3452 43.8823C39.3437 43.8832 39.3423 43.884 39.3407 43.8849H39.3408Z" fill="#FFC700" fill-opacity="0.55"/>
<path d="M38.6761 43.8066C38.6728 43.813 38.6701 43.819 38.6671 43.8251C38.6957 43.8303 38.7243 43.8348 38.7529 43.8396C38.7277 43.8289 38.7021 43.8185 38.6778 43.8071C38.6772 43.8071 38.6766 43.8069 38.6761 43.8066Z" fill="#FFC700" fill-opacity="0.55"/>
<path d="M39.1487 44.0028C39.1669 44.0069 39.1846 44.0117 39.2032 44.0154C39.2777 44.0183 39.3523 44.0209 39.4262 44.0225C39.3834 44.0163 39.3409 44.0099 39.2997 44.0022C39.2539 44.0003 39.2075 43.997 39.1615 43.9946C39.157 43.9975 39.153 44 39.1487 44.0028Z" fill="#FFC700" fill-opacity="0.55"/>
<path d="M39.2681 43.9285C39.2839 43.9324 39.2995 43.9364 39.3152 43.9402C39.3694 43.9449 39.4235 43.9496 39.4775 43.9536C39.4339 43.9463 39.3906 43.9385 39.3479 43.9301C39.3241 43.9279 39.3004 43.9259 39.2766 43.9233C39.2739 43.9251 39.2708 43.9269 39.2681 43.9285Z" fill="#FFC700" fill-opacity="0.55"/>
<path d="M39.1806 43.9827C39.1914 43.9833 39.2023 43.9841 39.2131 43.9846C39.2043 43.9828 39.196 43.9804 39.1873 43.9785C39.1851 43.9799 39.1828 43.9812 39.1806 43.9827Z" fill="#FFC700" fill-opacity="0.55"/>
<path d="M39.22 43.9581C39.2814 43.9629 39.3428 43.9672 39.4038 43.971C39.3712 43.9642 39.3389 43.9571 39.3068 43.9494C39.2852 43.9477 39.2637 43.9462 39.2421 43.9443C39.2344 43.949 39.2275 43.9535 39.22 43.9581Z" fill="#FFC700" fill-opacity="0.55"/>
<path d="M39.3022 43.9077C39.3303 43.9137 39.3583 43.9195 39.3866 43.9249C39.4732 43.9335 39.5595 43.941 39.6457 43.9471C39.6154 43.9421 39.5854 43.9366 39.5557 43.9311C39.4728 43.9236 39.3896 43.9151 39.3063 43.9053C39.305 43.906 39.3036 43.9068 39.3021 43.9077H39.3022Z" fill="#FFC700" fill-opacity="0.55"/>
<path d="M39.3174 43.8985C39.3747 43.9058 39.432 43.912 39.4892 43.918C39.4604 43.912 39.4315 43.906 39.4032 43.8995C39.3791 43.8964 39.3553 43.8933 39.3312 43.8901C39.3266 43.8929 39.3221 43.8956 39.3175 43.8984L39.3174 43.8985Z" fill="#FFC700" fill-opacity="0.55"/>
<path d="M38.8076 43.7773C38.8318 43.7872 38.856 43.797 38.88 43.8063C38.8873 43.8077 38.8943 43.8091 38.9014 43.8106C38.8717 43.8003 38.8426 43.7894 38.8132 43.7787C38.8114 43.7782 38.8094 43.7778 38.8076 43.7773Z" fill="#FFC700" fill-opacity="0.55"/>
<path d="M39.1135 44.0264C39.1033 44.0332 39.0926 44.0399 39.0829 44.0465C39.1348 44.0477 39.1871 44.0496 39.2386 44.0503C39.2025 44.0439 39.1695 44.0348 39.135 44.0272C39.1278 44.027 39.1207 44.0267 39.1135 44.0264Z" fill="#FFC700" fill-opacity="0.55"/>
<path d="M38.6983 43.7673C38.7509 43.7792 38.8037 43.7906 38.8563 43.8014C38.8342 43.7923 38.8121 43.7831 38.7902 43.7734C38.7621 43.767 38.7342 43.7605 38.7063 43.7539C38.7036 43.7585 38.7009 43.7629 38.6983 43.7673Z" fill="#FFC700" fill-opacity="0.55"/>
<path d="M38.7117 43.7449C38.7207 43.7471 38.7299 43.7491 38.7389 43.7513C38.7306 43.7481 38.7225 43.744 38.7142 43.7407C38.7132 43.7421 38.7127 43.7435 38.7117 43.745V43.7449Z" fill="#FFC700" fill-opacity="0.55"/>
<path d="M38.7222 43.7275C38.7215 43.7289 38.7207 43.73 38.72 43.7314C38.7573 43.7463 38.7949 43.7608 38.833 43.7746C38.9099 43.7924 38.987 43.8089 39.0641 43.8242C39.0666 43.8221 39.0693 43.8198 39.0717 43.8177C39.0445 43.8103 39.0176 43.8026 38.9908 43.7947C38.9009 43.7743 38.8113 43.752 38.7222 43.7276V43.7275Z" fill="#FFC700" fill-opacity="0.55"/>
<path d="M38.6855 43.7888C38.6943 43.7929 38.7038 43.7963 38.7127 43.8003C38.8005 43.8178 38.888 43.8335 38.9756 43.8481C38.9514 43.8393 38.9273 43.8303 38.9033 43.8207C38.8329 43.8073 38.7625 43.793 38.6921 43.7778C38.6902 43.7814 38.6875 43.7853 38.6855 43.7887V43.7888Z" fill="#FFC700" fill-opacity="0.55"/>
<path d="M41.0601 44.1747C41.0614 44.1741 41.0627 44.1735 41.064 44.1729C41.0643 44.1729 41.0647 44.1726 41.0651 44.1724C41.0635 44.1732 41.0618 44.174 41.0602 44.1747H41.0601Z" fill="#FFC700" fill-opacity="0.55"/>
<path d="M39.1072 45.6504C39.1158 45.6316 39.1248 45.6131 39.134 45.5947C39.1174 45.6113 39.1013 45.6285 39.0849 45.6453C39.0887 45.6507 39.0925 45.6562 39.0965 45.6616C39.1001 45.658 39.1037 45.6542 39.1071 45.6505L39.1072 45.6504Z" fill="#FFC700" fill-opacity="0.55"/>
<path d="M39.0406 45.2132C39.045 45.2161 39.0497 45.2191 39.0543 45.2222C39.0588 45.2134 39.0628 45.2047 39.0679 45.1958C39.0588 45.2015 39.0498 45.2074 39.0406 45.2132Z" fill="#FFC700" fill-opacity="0.55"/>
<path d="M39.0292 45.4045C39.0251 45.4193 39.0216 45.4343 39.0189 45.449C39.0324 45.4384 39.0459 45.4276 39.0594 45.4171C39.0528 45.4098 39.047 45.4025 39.0413 45.395C39.0372 45.3981 39.0333 45.4014 39.0292 45.4045Z" fill="#FFC700" fill-opacity="0.55"/>
<path d="M54.3959 67.9065C54.4142 67.8782 54.433 67.8503 54.4512 67.8218C54.481 67.7753 54.5097 67.7279 54.5393 67.6812C54.4918 67.7565 54.4442 67.8317 54.396 67.9065H54.3959Z" fill="#FFC700" fill-opacity="0.55"/>
<path d="M40.1879 43.9528C40.0982 43.9503 40.0087 43.946 39.9191 43.9399C39.9417 43.9427 39.9641 43.9451 39.9866 43.9475C40.0516 43.9509 40.1167 43.9535 40.1817 43.955C40.1837 43.9542 40.1858 43.9535 40.1879 43.9527V43.9528Z" fill="#FFC700" fill-opacity="0.55"/>
<path d="M40.1908 43.9518C40.2076 43.9523 40.224 43.9527 40.2404 43.9532L40.209 43.9518C40.0741 43.9471 39.94 43.9381 39.8068 43.9248C39.8343 43.9289 39.8619 43.9324 39.8894 43.936C39.9896 43.9435 40.0898 43.9488 40.1903 43.9519H40.1906L40.1908 43.9518Z" fill="#FFC700" fill-opacity="0.55"/>
<path d="M39.0363 45.0972C39.0259 45.1137 39.017 45.1302 39.01 45.1463C39.0508 45.1229 39.091 45.1009 39.1316 45.0778C39.1165 45.0752 39.1013 45.0724 39.0879 45.0693C39.0707 45.0788 39.0536 45.0877 39.0363 45.0973V45.0972Z" fill="#FFC700" fill-opacity="0.55"/>
<path d="M41.0804 44.1657C41.0896 44.161 41.0985 44.1559 41.1078 44.1514C41.0932 44.1586 41.0783 44.1654 41.0638 44.1729C41.0387 44.1857 41.0135 44.1981 40.9887 44.211C40.983 44.214 40.9774 44.217 40.9717 44.22C40.9531 44.2298 40.9353 44.2405 40.917 44.2506C40.96 44.2276 41.0029 44.2047 41.0463 44.1827C41.0576 44.1769 41.0691 44.1715 41.0805 44.1658L41.0804 44.1657Z" fill="#FFC700" fill-opacity="0.55"/>
<path d="M39.1939 44.8525C39.165 44.8654 39.1357 44.8786 39.1066 44.8917C39.1183 44.8917 39.1316 44.891 39.1443 44.8906C39.1599 44.8779 39.1766 44.8652 39.1938 44.8525H39.1939Z" fill="#FFC700" fill-opacity="0.55"/>
<path d="M41.0933 44.1592C41.089 44.1613 41.0846 44.1634 41.0803 44.1655C41.0792 44.1661 41.0781 44.1667 41.077 44.1672C41.0823 44.1644 41.0877 44.1619 41.0932 44.1592H41.0933Z" fill="#FFC700" fill-opacity="0.55"/>
<path d="M39.2778 45.0961C39.2635 45.0948 39.2489 45.0936 39.2355 45.0923C39.2179 45.103 39.2005 45.1138 39.1829 45.1246C39.1658 45.1452 39.1501 45.1657 39.1357 45.1861C39.1831 45.1556 39.2305 45.1258 39.2779 45.096L39.2778 45.0961Z" fill="#FFC700" fill-opacity="0.55"/>
<path d="M40.177 43.9572C40.1492 43.9567 40.1215 43.9555 40.0938 43.9546C40.1201 43.956 40.1464 43.9578 40.1729 43.9589C40.1743 43.9583 40.1756 43.9579 40.1771 43.9573L40.177 43.9572Z" fill="#FFC700" fill-opacity="0.55"/>
<path d="M40.1262 43.9763C40.0772 43.9743 40.0286 43.9719 39.9803 43.9686C39.916 43.9669 39.8517 43.9645 39.7872 43.9614C39.8331 43.9665 39.8788 43.9711 39.9244 43.9747C39.991 43.9763 40.0573 43.9773 40.1234 43.9774C40.1244 43.977 40.1252 43.9766 40.1262 43.9763Z" fill="#FFC700" fill-opacity="0.55"/>
<path d="M39.9046 44.0609C39.8607 44.0599 39.8162 44.0594 39.7735 44.0571C39.6833 44.0601 39.5912 44.0605 39.4998 44.0617C39.5512 44.0672 39.6045 44.071 39.6581 44.0744C39.7389 44.0714 39.8187 44.0675 39.8986 44.0633C39.9004 44.0624 39.9028 44.0617 39.9047 44.0609H39.9046Z" fill="#FFC700" fill-opacity="0.55"/>
<path d="M39.7417 44.1243C39.7582 44.1178 39.7759 44.111 39.7928 44.1045C39.7065 44.1108 39.6186 44.1155 39.5309 44.1207C39.5881 44.1241 39.647 44.1263 39.7079 44.1273C39.7193 44.1263 39.7304 44.1254 39.7418 44.1244L39.7417 44.1243Z" fill="#FFC700" fill-opacity="0.55"/>
<path d="M39.8697 44.0747C39.8391 44.0765 39.8095 44.0791 39.7789 44.0808C39.8024 44.0815 39.8268 44.0815 39.8509 44.082C39.8573 44.0795 39.8632 44.0772 39.8697 44.0747Z" fill="#FFC700" fill-opacity="0.55"/>
<path d="M39.6047 44.1783C39.5807 44.1808 39.5562 44.183 39.5323 44.1853C39.5503 44.1855 39.5685 44.1855 39.587 44.1853C39.5929 44.183 39.5985 44.1806 39.6047 44.1782V44.1783Z" fill="#FFC700" fill-opacity="0.55"/>
<path d="M39.6769 44.1495C39.6457 44.1495 39.6154 44.1487 39.5853 44.1479C39.4799 44.1564 39.3744 44.1649 39.267 44.1718C39.313 44.1762 39.3608 44.1794 39.4102 44.1817C39.4897 44.1749 39.5697 44.1684 39.648 44.161C39.6574 44.1573 39.6673 44.1535 39.6769 44.1496V44.1495Z" fill="#FFC700" fill-opacity="0.55"/>
<path d="M40.1109 43.9823C40.0861 43.9823 40.0615 43.9823 40.0366 43.9819C40.0593 43.9831 40.082 43.9838 40.1046 43.9846C40.1066 43.9838 40.1088 43.983 40.1109 43.9823Z" fill="#FFC700" fill-opacity="0.55"/>
<path d="M40.1606 43.9636C40.1598 43.9636 40.1588 43.9634 40.1578 43.9634C40.0608 43.9618 39.9637 43.9582 39.8661 43.9531C39.911 43.9574 39.9561 43.9616 40.0017 43.9647C40.0509 43.9661 40.1 43.9673 40.1491 43.9679C40.1531 43.9663 40.1568 43.965 40.1606 43.9635V43.9636Z" fill="#FFC700" fill-opacity="0.55"/>
<path d="M39.4102 44.2567C39.4356 44.2463 39.461 44.236 39.4879 44.2251C39.3845 44.2376 39.2816 44.2504 39.1761 44.2617C39.2274 44.2648 39.2818 44.2662 39.3394 44.2661C39.3631 44.2632 39.3865 44.2599 39.4101 44.2568L39.4102 44.2567Z" fill="#FFC700" fill-opacity="0.55"/>
<path d="M40.0761 43.9956C40.0324 43.996 39.9884 43.9958 39.9445 43.9958C39.9835 43.9981 40.0238 43.9988 40.0636 44.0003C40.0677 43.9988 40.072 43.9971 40.0761 43.9957V43.9956Z" fill="#FFC700" fill-opacity="0.55"/>
<path d="M40.0408 44.0088C39.9572 44.0105 39.8739 44.0132 39.7893 44.0132C39.834 44.0169 39.8791 44.0198 39.9243 44.0218C39.9542 44.0211 39.9838 44.02 40.0137 44.0191C40.0228 44.0156 40.0316 44.0122 40.0408 44.0088Z" fill="#FFC700" fill-opacity="0.55"/>
<path d="M39.9788 44.0326C39.9564 44.032 39.9346 44.0312 39.9127 44.0303C39.8387 44.0323 39.7644 44.0339 39.6895 44.0346C39.7403 44.0389 39.7917 44.0424 39.8441 44.0449C39.8832 44.0437 39.9217 44.0413 39.9605 44.0397C39.9666 44.0375 39.9728 44.0351 39.9788 44.0327V44.0326Z" fill="#FFC700" fill-opacity="0.55"/>
<path d="M38.6373 43.8943C38.6395 43.8956 38.6418 43.8966 38.644 43.8979C38.6883 43.9037 38.7326 43.9095 38.7768 43.9148C38.7524 43.9043 38.7277 43.8942 38.7045 43.8831C38.6846 43.8802 38.6646 43.8775 38.6447 43.8745C38.6419 43.8813 38.6397 43.8878 38.6373 43.8943Z" fill="#FFC700" fill-opacity="0.55"/>
<path d="M38.5635 43.7184C38.553 43.7155 38.5425 43.7128 38.5322 43.71C38.5419 43.7154 38.5519 43.7206 38.5619 43.7259C38.5625 43.7233 38.5629 43.721 38.5635 43.7185V43.7184Z" fill="#FFC700" fill-opacity="0.55"/>
<path d="M38.5751 43.6838C38.5283 43.67 38.4814 43.6562 38.4348 43.6411C38.435 43.6452 38.4353 43.6489 38.4355 43.6529C38.4517 43.6632 38.4672 43.6744 38.484 43.6842C38.5117 43.692 38.5394 43.6995 38.5671 43.7069C38.5694 43.6994 38.5725 43.6915 38.5751 43.6838Z" fill="#FFC700" fill-opacity="0.55"/>
<path d="M38.5449 43.8184C38.5342 43.8165 38.5235 43.8145 38.5128 43.8125C38.5229 43.82 38.5328 43.8277 38.5433 43.8349C38.5436 43.8296 38.5444 43.824 38.5449 43.8184Z" fill="#FFC700" fill-opacity="0.55"/>
<path d="M38.5474 43.7961C38.5354 43.7885 38.5227 43.7814 38.5112 43.7735C38.4908 43.7692 38.4705 43.7648 38.4501 43.7603C38.4501 43.7608 38.4501 43.7615 38.4504 43.7618C38.4613 43.7715 38.4722 43.7812 38.4837 43.7903C38.5047 43.7945 38.5257 43.7983 38.5468 43.8024C38.5471 43.8002 38.5471 43.7981 38.5474 43.796V43.7961Z" fill="#FFC700" fill-opacity="0.55"/>
<path d="M38.5441 43.9029C38.5396 43.9023 38.5354 43.9018 38.5311 43.9014C38.5355 43.9057 38.5405 43.9095 38.545 43.9138C38.5446 43.9103 38.5446 43.9065 38.5441 43.9029Z" fill="#FFC700" fill-opacity="0.55"/>
<path d="M38.5569 43.748C38.5323 43.7423 38.5077 43.7359 38.4832 43.73C38.5006 43.7416 38.5191 43.7525 38.5372 43.7636C38.5423 43.7647 38.5475 43.7656 38.5526 43.7668C38.5539 43.7607 38.5554 43.7543 38.557 43.748H38.5569Z" fill="#FFC700" fill-opacity="0.55"/>
<path d="M39.3723 43.8823C39.419 43.8916 39.4664 43.8997 39.5137 43.9076C39.6084 43.9187 39.7032 43.9284 39.7979 43.9359C39.754 43.9311 39.7103 43.9253 39.6668 43.9195C39.5686 43.9093 39.4704 43.8966 39.3723 43.8823Z" fill="#FFC700" fill-opacity="0.55"/>
<path d="M39.4369 44.2153C39.3815 44.2148 39.329 44.2127 39.2783 44.2095C39.1727 44.2188 39.065 44.2269 38.9572 44.235C38.9934 44.242 39.0315 44.2481 39.0724 44.2526C39.1954 44.241 39.3165 44.2284 39.4368 44.2153H39.4369Z" fill="#FFC700" fill-opacity="0.55"/>
<path d="M38.7675 44.0552C38.7831 44.0621 38.7986 44.0689 38.8151 44.0752C38.8195 44.0696 38.8252 44.0636 38.8299 44.0578C38.8093 44.0573 38.7882 44.0559 38.7675 44.0552Z" fill="#FFC700" fill-opacity="0.55"/>
<path d="M40.022 43.9517C40.0468 43.9542 40.0714 43.9563 40.0962 43.9585C40.1153 43.959 40.1343 43.9599 40.1533 43.9601C40.112 43.9581 40.0701 43.9553 40.0277 43.9519C40.0258 43.9519 40.0238 43.9519 40.022 43.9517Z" fill="#FFC700" fill-opacity="0.55"/>
<path d="M39.7587 43.9421C39.8541 43.9488 39.9491 43.9533 40.0442 43.9566C40.0031 43.9541 39.9624 43.9501 39.9218 43.9467C39.8188 43.9409 39.7159 43.933 39.6127 43.9229C39.6612 43.9299 39.7099 43.9364 39.7587 43.9421Z" fill="#FFC700" fill-opacity="0.55"/>
<path d="M38.8847 44.1926C38.8766 44.1995 38.8694 44.206 38.862 44.2126C38.871 44.2151 38.8806 44.2175 38.89 44.2201C38.9865 44.2142 39.0832 44.2085 39.1781 44.2015C39.1337 44.1968 39.0913 44.1909 39.051 44.1841C38.9958 44.1871 38.9404 44.1899 38.8847 44.1926Z" fill="#FFC700" fill-opacity="0.55"/>
<path d="M38.3736 43.6872C38.3802 43.6889 38.3869 43.691 38.3935 43.6927C38.3918 43.6883 38.3897 43.6841 38.3882 43.6795C38.3835 43.6754 38.3791 43.671 38.3746 43.6667C38.3671 43.6646 38.3596 43.6623 38.3522 43.6602C38.3537 43.6626 38.3552 43.665 38.3568 43.6674C38.3624 43.674 38.3678 43.6807 38.3736 43.6871V43.6872Z" fill="#FFC700" fill-opacity="0.55"/>
<path d="M38.3403 43.642C38.3447 43.6434 38.3493 43.6446 38.3538 43.646C38.3436 43.6365 38.3342 43.6265 38.3244 43.6167C38.3292 43.6254 38.3351 43.6335 38.3403 43.6421V43.642Z" fill="#FFC700" fill-opacity="0.55"/>
<path d="M38.3638 43.6191C38.3498 43.6145 38.3359 43.6087 38.3219 43.604C38.3406 43.6206 38.3594 43.6372 38.3791 43.6531C38.3762 43.6438 38.3742 43.634 38.3717 43.6247C38.369 43.6228 38.3664 43.6209 38.3638 43.6192V43.6191Z" fill="#FFC700" fill-opacity="0.55"/>
<path d="M38.3942 43.7085L38.4041 43.7184C38.4029 43.7157 38.4019 43.7129 38.4007 43.7101C38.3985 43.7096 38.3963 43.7092 38.3942 43.7086V43.7085Z" fill="#FFC700" fill-opacity="0.55"/>
<path d="M38.4644 43.8038C38.4674 43.8125 38.4696 43.8215 38.4732 43.8298C38.4837 43.8316 38.4943 43.8335 38.5048 43.8353C38.4931 43.8253 38.4815 43.8154 38.4705 43.8049C38.4685 43.8045 38.4664 43.804 38.4644 43.8037V43.8038Z" fill="#FFC700" fill-opacity="0.55"/>
<path d="M38.4818 43.7508C38.4685 43.7413 38.4558 43.7311 38.4429 43.7212C38.4441 43.7284 38.4453 43.7356 38.4469 43.7427C38.4585 43.7454 38.4702 43.7482 38.4818 43.7508Z" fill="#FFC700" fill-opacity="0.55"/>
<path d="M38.4363 43.6704L38.4376 43.6708L38.4363 43.6699V43.6704Z" fill="#FFC700" fill-opacity="0.55"/>
<path d="M38.4536 43.7085C38.4784 43.7149 38.503 43.721 38.5279 43.7272C38.5083 43.7158 38.4879 43.705 38.469 43.693C38.4583 43.69 38.4477 43.6872 38.437 43.6841C38.4376 43.6887 38.4381 43.6929 38.4386 43.6974C38.4436 43.701 38.4485 43.7049 38.4536 43.7085Z" fill="#FFC700" fill-opacity="0.55"/>
<path d="M38.5435 43.8848C38.5431 43.8784 38.5426 43.8721 38.5426 43.8656C38.5391 43.8631 38.5354 43.8605 38.5321 43.8578C38.5161 43.8554 38.5002 43.8526 38.4841 43.8501C38.4926 43.8604 38.5018 43.8703 38.5112 43.8804C38.5218 43.8818 38.5328 43.8832 38.5435 43.8848Z" fill="#FFC700" fill-opacity="0.55"/>
<path d="M38.7504 43.8739C38.7961 43.8806 38.8417 43.8867 38.887 43.8928C38.8592 43.8828 38.8316 43.8728 38.8046 43.862C38.7618 43.8554 38.719 43.8486 38.6761 43.8413C38.6998 43.853 38.7256 43.8631 38.7504 43.8739Z" fill="#FFC700" fill-opacity="0.55"/>
<path d="M38.8152 44.2573C38.8088 44.264 38.802 44.2709 38.7966 44.2772C38.8185 44.2754 38.8398 44.2733 38.8615 44.2714C38.8452 44.267 38.83 44.2624 38.8152 44.2573Z" fill="#FFC700" fill-opacity="0.55"/>
<path d="M39.8164 44.0254C39.7638 44.0218 39.7125 44.0172 39.6622 44.0113C39.5927 44.0106 39.5233 44.0099 39.4533 44.0078C39.4938 44.0138 39.5349 44.0194 39.5768 44.0241C39.6567 44.0247 39.7373 44.0263 39.8164 44.0255V44.0254Z" fill="#FFC700" fill-opacity="0.55"/>
<path d="M39.3757 43.9948C39.4424 43.9977 39.5078 43.998 39.5739 43.9997C39.5412 43.9951 39.5088 43.9899 39.4768 43.9843C39.4009 43.9808 39.3246 43.9765 39.2479 43.9712C39.2896 43.9801 39.3326 43.9875 39.3756 43.9947L39.3757 43.9948Z" fill="#FFC700" fill-opacity="0.55"/>
<path d="M39.2073 44.0847C39.2902 44.084 39.3719 44.0821 39.4538 44.0803C39.4152 44.0761 39.3794 44.0699 39.3424 44.0647C39.26 44.065 39.1762 44.0632 39.093 44.062C39.1301 44.0703 39.1681 44.0779 39.2073 44.0846V44.0847Z" fill="#FFC700" fill-opacity="0.55"/>
<path d="M39.7323 44.0984C39.6766 44.0968 39.6235 44.0928 39.5704 44.0889C39.4803 44.0924 39.3908 44.0963 39.2994 44.0983C39.3401 44.1038 39.3819 44.1087 39.425 44.1126C39.5278 44.1083 39.6312 44.1046 39.7323 44.0984Z" fill="#FFC700" fill-opacity="0.55"/>
<path d="M39.4937 43.9757C39.5632 43.9793 39.6325 43.9823 39.7015 43.9845C39.6568 43.9797 39.6129 43.9737 39.5691 43.9674C39.5095 43.9641 39.4497 43.9603 39.3896 43.9561C39.4242 43.9632 39.459 43.9697 39.4937 43.9757Z" fill="#FFC700" fill-opacity="0.55"/>
<path d="M39.4062 43.8999C39.441 43.9072 39.4756 43.9141 39.5101 43.9204C39.5511 43.9247 39.5923 43.9281 39.6333 43.9317C39.5807 43.9242 39.5277 43.9172 39.4761 43.908C39.4528 43.9053 39.4296 43.9028 39.4062 43.8999Z" fill="#FFC700" fill-opacity="0.55"/>
<path d="M39.1716 44.1611C39.2708 44.1561 39.3681 44.1497 39.4658 44.1433C39.4175 44.1404 39.3703 44.1366 39.3249 44.1318C39.2343 44.136 39.1426 44.1387 39.0508 44.1415C39.0893 44.1491 39.1299 44.1554 39.1717 44.1611H39.1716Z" fill="#FFC700" fill-opacity="0.55"/>
<path d="M39.8854 43.9607C39.8339 43.9562 39.7823 43.9514 39.7316 43.9452C39.6813 43.9418 39.6309 43.9375 39.5805 43.9331C39.6208 43.9398 39.6611 43.9459 39.7012 43.9511C39.7628 43.9552 39.8242 43.9581 39.8853 43.9607H39.8854Z" fill="#FFC700" fill-opacity="0.55"/>
<path d="M39.6132 43.9623C39.6811 43.9662 39.7488 43.9693 39.8162 43.9718C39.7826 43.9677 39.7493 43.9634 39.7164 43.9585C39.6341 43.9541 39.5514 43.9482 39.4684 43.9414C39.5158 43.9495 39.5647 43.9556 39.6132 43.9623Z" fill="#FFC700" fill-opacity="0.55"/>
<path d="M39.8969 43.9801C39.8298 43.9787 39.7625 43.9765 39.6949 43.9736C39.7505 43.9801 39.8077 43.9842 39.8646 43.9888C39.9115 43.9895 39.9584 43.9895 40.005 43.9896C39.9686 43.9869 39.9324 43.9838 39.8969 43.9801Z" fill="#FFC700" fill-opacity="0.55"/>
<path d="M39.5725 43.9889C39.6069 43.9938 39.6415 43.9987 39.676 44.0025C39.761 44.004 39.8457 44.0048 39.9298 44.0044C39.8912 44.0022 39.8538 43.9983 39.816 43.9953C39.7351 43.9939 39.6539 43.9917 39.5724 43.9888L39.5725 43.9889Z" fill="#FFC700" fill-opacity="0.55"/>
<path d="M39.4147 44.0509C39.4971 44.0509 39.5791 44.0501 39.6605 44.0487C39.6068 44.0444 39.5523 44.0406 39.5007 44.0343C39.4315 44.0338 39.3631 44.0343 39.2933 44.0327C39.333 44.0396 39.3735 44.0456 39.4146 44.051L39.4147 44.0509Z" fill="#FFC700" fill-opacity="0.55"/>
<path d="M38.9101 44.1719C38.9318 44.171 38.9533 44.1701 38.9747 44.1693C38.9584 44.1656 38.9431 44.1617 38.9276 44.1577C38.9214 44.1626 38.916 44.1672 38.9101 44.1719Z" fill="#FFC700" fill-opacity="0.55"/>
<path d="M38.9922 43.8888C38.9638 43.885 38.9353 43.8811 38.9069 43.877C38.9308 43.8852 38.9552 43.8929 38.9795 43.9005C38.9837 43.8966 38.988 43.8928 38.9922 43.8888Z" fill="#FFC700" fill-opacity="0.55"/>
<path d="M38.9724 44.1239C38.9745 44.1244 38.9769 44.1248 38.979 44.1253C39.0644 44.1239 39.1504 44.1233 39.2347 44.1207C39.1926 44.1148 39.152 44.1077 39.1125 44.1001C39.0766 44.1005 39.0402 44.1005 39.0041 44.1006C38.9929 44.1086 38.983 44.1163 38.9725 44.1239H38.9724Z" fill="#FFC700" fill-opacity="0.55"/>
<path d="M38.8786 44.0014C38.8849 43.9945 38.8926 43.9872 38.8993 43.9802C38.865 43.9776 38.8299 43.9735 38.7957 43.9707C38.8217 43.9814 38.8486 43.9916 38.8763 44.0013C38.8771 44.0013 38.8777 44.0014 38.8786 44.0014Z" fill="#FFC700" fill-opacity="0.55"/>
<path d="M39.0282 44.0838H39.0346C39.0332 44.0833 39.0316 44.0829 39.03 44.0825C39.0294 44.0829 39.0287 44.0833 39.0282 44.0838Z" fill="#FFC700" fill-opacity="0.55"/>
<path d="M38.8404 43.8542C38.8949 43.863 38.9491 43.8708 39.0033 43.8786C39.0083 43.8742 39.0129 43.8698 39.0178 43.8653C38.9344 43.8525 38.8508 43.8385 38.7671 43.8232C38.7917 43.8335 38.8152 43.8447 38.8404 43.8542Z" fill="#FFC700" fill-opacity="0.55"/>
<path d="M38.9453 43.9331C38.9507 43.9278 38.9558 43.9225 38.9615 43.9171C38.959 43.9164 38.9564 43.9155 38.9539 43.9147C38.903 43.9088 38.8521 43.9027 38.801 43.896C38.8265 43.9064 38.8524 43.9162 38.8789 43.9257C38.901 43.928 38.9231 43.9308 38.9453 43.9331Z" fill="#FFC700" fill-opacity="0.55"/>
<path d="M39.3565 43.8754C39.4241 43.886 39.4918 43.8954 39.5594 43.9038C39.4944 43.8937 39.4297 43.8825 39.3655 43.8701C39.3627 43.8718 39.3594 43.8736 39.3565 43.8753V43.8754Z" fill="#FFC700" fill-opacity="0.55"/>
<path d="M38.7447 43.9484C38.7999 43.9537 38.8557 43.9605 38.9106 43.965C38.8814 43.9552 38.8519 43.9459 38.824 43.935C38.7777 43.9303 38.7315 43.9253 38.685 43.9199C38.7044 43.9298 38.7244 43.9394 38.7447 43.9484Z" fill="#FFC700" fill-opacity="0.55"/>
<path d="M39.0271 43.8568C39.029 43.8551 39.0306 43.8535 39.0324 43.8518C39.0116 43.8458 38.9901 43.8405 38.9696 43.8339C38.9589 43.832 38.948 43.8296 38.9373 43.8276C38.9632 43.8371 38.9892 43.8461 39.0149 43.8548C39.0191 43.8555 39.0231 43.8561 39.0271 43.8568Z" fill="#FFC700" fill-opacity="0.55"/>
<path d="M39.0472 43.8382C39.0505 43.8352 39.0545 43.8322 39.0578 43.8292C39.0069 43.8195 38.956 43.8097 38.9053 43.7988C38.9342 43.8086 38.9625 43.8194 38.992 43.8284C39.0104 43.8319 39.0288 43.8348 39.0472 43.8382Z" fill="#FFC700" fill-opacity="0.55"/>
<path d="M38.7221 44.0336C38.7627 44.0354 38.8043 44.0386 38.8446 44.0403C38.8475 44.037 38.8502 44.0336 38.8533 44.0302C38.8382 44.0248 38.8237 44.019 38.8093 44.0133C38.7621 44.0107 38.7141 44.0066 38.6666 44.0034C38.6844 44.0139 38.703 44.024 38.7221 44.0336Z" fill="#FFC700" fill-opacity="0.55"/>
<path d="M39.6927 45.1084H39.6871C39.6561 45.1353 39.6242 45.1609 39.5935 45.1883C39.5856 45.1955 39.5779 45.2033 39.5699 45.2105C39.5442 45.2383 39.52 45.2667 39.4952 45.295C39.5554 45.2373 39.6153 45.1796 39.6772 45.1243C39.6825 45.1192 39.6874 45.1137 39.6927 45.1084Z" fill="#FFC700" fill-opacity="0.55"/>
<path d="M40.0621 44.7779C40.0544 44.7834 40.0465 44.7889 40.0388 44.7945C40.0402 44.7942 40.0415 44.794 40.043 44.7938C40.0494 44.7884 40.0559 44.7833 40.0622 44.7778L40.0621 44.7779Z" fill="#FFC700" fill-opacity="0.55"/>
<path d="M40.119 44.7314C40.146 44.7098 40.1731 44.6886 40.2003 44.668C40.1538 44.6989 40.1072 44.73 40.061 44.762C40.046 44.7737 40.0322 44.786 40.0175 44.7977C40.0205 44.7973 40.0236 44.7968 40.0267 44.7963C40.0576 44.7745 40.0882 44.7528 40.1191 44.7314H40.119Z" fill="#FFC700" fill-opacity="0.55"/>
<path d="M40.0477 44.728C40.0053 44.7552 39.9629 44.7833 39.9206 44.8112C39.9291 44.81 39.9369 44.809 39.9456 44.8078C39.9793 44.7805 40.0133 44.754 40.0478 44.728H40.0477Z" fill="#FFC700" fill-opacity="0.55"/>
<path d="M39.9689 44.7534C39.9343 44.7751 39.8996 44.7968 39.865 44.819C39.8728 44.8179 39.8808 44.8169 39.8887 44.8158C39.9151 44.7948 39.9416 44.774 39.9689 44.7534Z" fill="#FFC700" fill-opacity="0.55"/>
<path d="M40.1972 44.5924C40.1192 44.6367 40.0412 44.6824 39.9632 44.7288C39.9225 44.7585 39.8832 44.7884 39.845 44.8186C39.9152 44.7743 39.9857 44.7311 40.056 44.6888C40.1017 44.6563 40.1488 44.6243 40.1972 44.5924Z" fill="#FFC700" fill-opacity="0.55"/>
<path d="M40.0332 44.773C40.0764 44.7392 40.1213 44.7061 40.1665 44.6733C40.1089 44.7104 40.0515 44.7484 39.9944 44.787C39.987 44.7927 39.9791 44.7983 39.972 44.8041C39.9785 44.8031 39.9854 44.8022 39.9921 44.8013C40.0057 44.7917 40.0196 44.7824 40.0332 44.7729V44.773Z" fill="#FFC700" fill-opacity="0.55"/>
<path d="M40.5195 44.4857C40.4712 44.5163 40.4246 44.5492 40.3771 44.581C40.3638 44.59 40.3515 44.5998 40.3383 44.6089C40.404 44.5638 40.4692 44.5182 40.5366 44.4756C40.5311 44.4791 40.5251 44.4823 40.5196 44.4858L40.5195 44.4857Z" fill="#FFC700" fill-opacity="0.55"/>
<path d="M40.076 44.7812C40.0716 44.7844 40.067 44.7877 40.0627 44.7909C40.0633 44.7909 40.0638 44.7907 40.0642 44.7906C40.0682 44.7875 40.0721 44.7844 40.076 44.7812Z" fill="#FFC700" fill-opacity="0.55"/>
<path d="M40.6905 44.3833C40.6444 44.4106 40.5981 44.4373 40.5527 44.4656C40.6263 44.4193 40.7018 44.3755 40.7775 44.332C40.7483 44.3488 40.7195 44.3662 40.6905 44.3834V44.3833Z" fill="#FFC700" fill-opacity="0.55"/>
<path d="M40.3746 44.5825C40.3631 44.5901 40.3518 44.5979 40.3403 44.6056C40.323 44.6178 40.3062 44.6296 40.2897 44.6414C40.2958 44.6371 40.302 44.6332 40.3082 44.6289L40.3746 44.5825Z" fill="#FFC700" fill-opacity="0.55"/>
<path d="M40.2784 44.629C40.2326 44.6594 40.187 44.6901 40.1417 44.7214C40.1103 44.7453 40.0785 44.7688 40.0479 44.7931C40.0498 44.7929 40.0517 44.7927 40.0535 44.7924C40.0815 44.772 40.1097 44.7519 40.1379 44.7318C40.1836 44.6968 40.231 44.6629 40.2784 44.629Z" fill="#FFC700" fill-opacity="0.55"/>
<path d="M39.1174 45.5088C39.0949 45.5291 39.0725 45.55 39.0501 45.5707C39.0487 45.5746 39.048 45.5782 39.0469 45.582C39.0496 45.5875 39.0525 45.593 39.0556 45.5987C39.0678 45.587 39.0802 45.5756 39.0925 45.564C39.1002 45.5453 39.1088 45.527 39.1175 45.5088H39.1174Z" fill="#FFC700" fill-opacity="0.55"/>
<path d="M39.1695 45.6262C39.1795 45.6087 39.189 45.5911 39.1994 45.5737C39.1767 45.5976 39.1538 45.6216 39.1314 45.6458C39.125 45.658 39.1187 45.6703 39.1126 45.6825C39.1136 45.6837 39.1147 45.6847 39.1157 45.6859C39.1335 45.6659 39.1514 45.646 39.1695 45.6263V45.6262Z" fill="#FFC700" fill-opacity="0.55"/>
<path d="M39.1345 45.2675C39.14 45.2703 39.1453 45.2731 39.1511 45.2758C39.1589 45.2634 39.1666 45.2511 39.1753 45.2388C39.1617 45.2483 39.148 45.2579 39.1345 45.2674V45.2675Z" fill="#FFC700" fill-opacity="0.55"/>
<path d="M39.2337 45.5455C39.2262 45.557 39.2201 45.569 39.2127 45.5806C39.2224 45.5702 39.2323 45.5602 39.242 45.5499C39.2392 45.5484 39.2363 45.5471 39.2337 45.5454V45.5455Z" fill="#FFC700" fill-opacity="0.55"/>
<path d="M39.4367 45.3496C39.4538 45.329 39.4703 45.3079 39.488 45.2876C39.4605 45.3132 39.4333 45.3392 39.4062 45.3654C39.4098 45.3664 39.4136 45.3671 39.4171 45.3681C39.4235 45.3617 39.4303 45.3559 39.4366 45.3496H39.4367Z" fill="#FFC700" fill-opacity="0.55"/>
<path d="M39.0825 45.4835C39.0751 45.5006 39.0688 45.5177 39.0626 45.5348C39.0842 45.5156 39.1058 45.4966 39.1272 45.4777C39.1204 45.4726 39.1137 45.4675 39.1076 45.4624C39.0992 45.4694 39.0909 45.4764 39.0825 45.4835Z" fill="#FFC700" fill-opacity="0.55"/>
<path d="M39.2286 45.3082C39.2296 45.3085 39.2303 45.3089 39.2313 45.3092C39.2327 45.3073 39.2338 45.3051 39.2353 45.3032C39.2331 45.3049 39.2309 45.3065 39.2286 45.3082Z" fill="#FFC700" fill-opacity="0.55"/>
<path d="M39.1592 45.5011C39.157 45.4996 39.1544 45.4981 39.1521 45.4966C39.148 45.504 39.1441 45.5115 39.1402 45.519C39.1465 45.5131 39.1529 45.507 39.1592 45.5011Z" fill="#FFC700" fill-opacity="0.55"/>
<path d="M39.4386 45.3201C39.455 45.2993 39.4713 45.2784 39.4882 45.2583C39.4512 45.2913 39.4145 45.3246 39.3782 45.3586C39.3832 45.3601 39.3887 45.3614 39.3941 45.3628C39.4089 45.3486 39.4237 45.3343 39.4386 45.3202V45.3201Z" fill="#FFC700" fill-opacity="0.55"/>
<path d="M39.3249 45.1855C39.2819 45.2165 39.2389 45.2478 39.196 45.2795C39.193 45.2839 39.1898 45.2882 39.187 45.2925C39.194 45.2956 39.202 45.2983 39.2093 45.3012C39.23 45.2853 39.2508 45.2695 39.2717 45.2538C39.2888 45.2309 39.3063 45.208 39.3248 45.1857L39.3249 45.1855Z" fill="#FFC700" fill-opacity="0.55"/>
<path d="M39.4725 45.2041C39.4317 45.2375 39.391 45.2718 39.3505 45.3061C39.3412 45.3177 39.3319 45.3294 39.323 45.3412C39.3266 45.3423 39.33 45.3434 39.3334 45.3445C39.3596 45.3216 39.3861 45.2993 39.4124 45.2767C39.4325 45.2525 39.4514 45.228 39.4725 45.2041Z" fill="#FFC700" fill-opacity="0.55"/>
<path d="M39.3667 45.332C39.3604 45.3377 39.3539 45.3433 39.3475 45.3489C39.349 45.3493 39.3502 45.3497 39.3516 45.3502C39.3563 45.3441 39.3619 45.3382 39.3667 45.332Z" fill="#FFC700" fill-opacity="0.55"/>
<path d="M39.3445 45.2666C39.3203 45.2861 39.2961 45.3057 39.2719 45.3253C39.2792 45.3279 39.2876 45.3301 39.2951 45.3326C39.3114 45.3104 39.3273 45.2883 39.3445 45.2666Z" fill="#FFC700" fill-opacity="0.55"/>
<path d="M40.9271 44.2461C40.9253 44.2469 40.9233 44.248 40.9215 44.2489C40.8967 44.2622 40.873 44.2772 40.8484 44.2907C40.8782 44.2743 40.9075 44.2572 40.9375 44.2412C40.9341 44.2428 40.9304 44.2445 40.9269 44.2461H40.9271Z" fill="#FFC700" fill-opacity="0.55"/>
<path d="M39.0434 45.7045C39.042 45.7007 39.04 45.6968 39.0387 45.6929C39.0318 45.7001 39.0249 45.7072 39.018 45.7144C39.0171 45.7211 39.0167 45.7279 39.0159 45.7345C39.0161 45.7387 39.0163 45.7428 39.0166 45.747C39.0239 45.739 39.0312 45.7308 39.0386 45.7229C39.0402 45.7169 39.0418 45.7106 39.0434 45.7045Z" fill="#FFC700" fill-opacity="0.55"/>
<path d="M39.0284 45.6553C39.0262 45.6659 39.024 45.6766 39.0223 45.6872C39.0262 45.6833 39.0299 45.6794 39.0337 45.6754C39.0318 45.6687 39.0301 45.6619 39.0284 45.6553Z" fill="#FFC700" fill-opacity="0.55"/>
<path d="M39.0488 45.4868C39.0541 45.4701 39.0601 45.4532 39.0668 45.4365C39.0496 45.4504 39.0323 45.4644 39.015 45.4783C39.0144 45.4826 39.0135 45.4868 39.0133 45.4911C39.0147 45.498 39.0169 45.5048 39.0189 45.5117C39.0288 45.5033 39.0387 45.4952 39.0488 45.4868Z" fill="#FFC700" fill-opacity="0.55"/>
<path d="M39.039 45.5205C39.0345 45.5243 39.0302 45.5283 39.0257 45.5322C39.0277 45.5379 39.0292 45.5436 39.0315 45.5493C39.0337 45.5395 39.0364 45.53 39.0389 45.5205H39.039Z" fill="#FFC700" fill-opacity="0.55"/>
<path d="M39.0937 45.1559C39.1067 45.1366 39.1207 45.1175 39.1366 45.0981C39.0905 45.125 39.0446 45.1514 38.9984 45.1788C39.0062 45.186 39.0126 45.1935 39.0214 45.2004C39.0455 45.1857 39.0697 45.1704 39.0937 45.1559Z" fill="#FFC700" fill-opacity="0.55"/>
<path d="M39.0546 44.8915C39.13 44.8587 39.2058 44.8251 39.2804 44.7932C39.3298 44.7617 39.3844 44.73 39.4436 44.6982C39.2932 44.7594 39.1411 44.8224 38.9872 44.8869C39.0066 44.8892 39.0284 44.891 39.0547 44.8915H39.0546Z" fill="#FFC700" fill-opacity="0.55"/>
<path d="M39.0785 45.5991C39.0736 45.6039 39.0684 45.6087 39.0635 45.6136C39.0654 45.6171 39.0676 45.6203 39.0697 45.6238C39.0726 45.6156 39.0754 45.6073 39.0785 45.5991Z" fill="#FFC700" fill-opacity="0.55"/>
<path d="M39.3466 45.1009C39.3449 45.1009 39.343 45.1007 39.3413 45.1006C39.3382 45.1039 39.3353 45.1072 39.3322 45.1106C39.337 45.1074 39.3419 45.104 39.3466 45.1009Z" fill="#FFC700" fill-opacity="0.55"/>
<path d="M39.0301 45.7534C39.0256 45.7582 39.0216 45.7636 39.0172 45.7685C39.018 45.7766 39.0196 45.7847 39.0207 45.7928C39.0235 45.7796 39.0268 45.7665 39.0301 45.7534Z" fill="#FFC700" fill-opacity="0.55"/>
<path d="M39.0304 44.8449C39.2271 44.7653 39.421 44.6879 39.6118 44.6136C39.7163 44.5639 39.8308 44.5139 39.9538 44.4639C39.6978 44.5577 39.4364 44.6555 39.1685 44.7585C39.1122 44.7894 39.0662 44.8182 39.0304 44.8449Z" fill="#FFC700" fill-opacity="0.55"/>
<path d="M39.0534 45.728C39.052 45.7298 39.0503 45.7313 39.0488 45.7329C39.0435 45.7491 39.0382 45.7652 39.0335 45.7816C39.0431 45.7705 39.0525 45.7593 39.062 45.7483C39.0589 45.7416 39.0561 45.7347 39.0534 45.728Z" fill="#FFC700" fill-opacity="0.55"/>
<path d="M41.0308 44.1915C41.0298 44.1921 41.0288 44.1927 41.0278 44.193C41.0278 44.193 41.0282 44.193 41.0283 44.1928C41.0291 44.1924 41.03 44.1918 41.0308 44.1914V44.1915Z" fill="#FFC700" fill-opacity="0.55"/>
<path d="M41.5477 43.9268C41.3013 44.0119 41.0485 44.1061 40.7906 44.2075C40.6958 44.2474 40.6048 44.2875 40.5178 44.3279C40.7496 44.2305 40.9775 44.1391 41.2012 44.0551C41.3125 44.0117 41.4279 43.9689 41.5477 43.9268Z" fill="#FFC700" fill-opacity="0.55"/>
<path d="M41.2184 44.0152C40.7472 44.1645 40.2502 44.3293 39.7263 44.5107C39.5739 44.5696 39.4445 44.6242 39.3365 44.6744C39.7036 44.5391 40.0587 44.4122 40.4024 44.2933C40.6148 44.2171 40.8412 44.1412 41.0748 44.0657C41.1424 44.0431 41.2115 44.0202 41.2826 43.9971C41.2611 44.0032 41.2397 44.0093 41.2184 44.0152Z" fill="#FFC700" fill-opacity="0.55"/>
<path d="M41.5694 43.9162C41.4813 43.9455 41.3916 43.9771 41.302 44.0084C41.1974 44.0462 41.0961 44.0844 40.9987 44.1227C41.2068 44.0447 41.4111 43.9717 41.6112 43.9043C41.5973 43.9084 41.5831 43.9122 41.5693 43.9162H41.5694Z" fill="#FFC700" fill-opacity="0.55"/>
<path d="M40.9451 44.2364C40.9612 44.2277 40.9776 44.2194 40.9938 44.2108C41.007 44.204 41.0196 44.1968 41.0326 44.1899C41.0033 44.205 40.9743 44.2209 40.9451 44.2364Z" fill="#FFC700" fill-opacity="0.55"/>
<path d="M41.0167 44.1994C41.0167 44.1994 41.0171 44.199 41.0176 44.1987C41.0097 44.2029 41.0018 44.2069 40.994 44.2111C40.9768 44.2202 40.9598 44.2295 40.9429 44.2387C40.9674 44.2255 40.992 44.2123 41.0167 44.1994Z" fill="#FFC700" fill-opacity="0.55"/>
<path d="M41.1567 44.1289C41.1548 44.1298 41.1527 44.1306 41.1508 44.1314C41.1192 44.1469 41.0876 44.1623 41.0564 44.1783C41.0502 44.1814 41.0443 44.1847 41.0381 44.1878C41.0772 44.1677 41.1167 44.1485 41.1561 44.1292C41.1564 44.1292 41.1566 44.129 41.1568 44.1289H41.1567Z" fill="#FFC700" fill-opacity="0.55"/>
<path d="M40.185 44.3433C40.5007 44.2396 40.806 44.1412 41.1008 44.0488C41.0476 44.0638 40.9957 44.0785 40.9444 44.093C40.6605 44.1824 40.4076 44.2658 40.185 44.3433Z" fill="#FFC700" fill-opacity="0.55"/>
<path d="M41.1707 44.0352C41.1386 44.0455 41.1067 44.0556 41.0749 44.066C41.0449 44.0761 41.0143 44.0862 40.985 44.0963C41.0472 44.0756 41.1092 44.0553 41.1707 44.0352Z" fill="#FFC700" fill-opacity="0.55"/>
<path d="M40.1682 44.4007C40.4148 44.3085 40.6546 44.2223 40.8898 44.1401C41.0383 44.086 41.1954 44.0312 41.3617 43.9761C41.119 44.0549 40.8702 44.1382 40.6135 44.2275C40.4529 44.2866 40.3045 44.3444 40.1682 44.4007Z" fill="#FFC700" fill-opacity="0.55"/>
<path d="M41.1149 44.0652C40.9668 44.1182 40.8261 44.1711 40.694 44.2237C40.8737 44.1565 41.0492 44.0934 41.2227 44.033C41.3158 43.9995 41.4118 43.9659 41.5108 43.9326C41.5037 43.9347 41.4961 43.9368 41.4889 43.9389C41.3659 43.9794 41.2414 44.0214 41.1149 44.0653V44.0652Z" fill="#FFC700" fill-opacity="0.55"/>
<path d="M41.3303 43.9902C41.3714 43.9767 41.4129 43.9624 41.4537 43.9492C41.4523 43.9497 41.4509 43.9501 41.4493 43.9504C41.4092 43.9638 41.3692 43.977 41.3303 43.9904V43.9902Z" fill="#FFC700" fill-opacity="0.55"/>
<path d="M39.8898 44.7607C39.9438 44.722 39.9998 44.6845 40.0569 44.6479C39.9666 44.6984 39.8762 44.7501 39.7856 44.8036C39.7722 44.8138 39.7589 44.824 39.7458 44.8343C39.7546 44.8331 39.7634 44.8321 39.7724 44.8309C39.8117 44.8071 39.8508 44.784 39.8898 44.7607Z" fill="#FFC700" fill-opacity="0.55"/>
<path d="M41.0743 44.1523C41.0557 44.1604 41.037 44.1685 41.0187 44.1767C40.9612 44.2039 40.9038 44.2319 40.8464 44.2605C40.7827 44.2941 40.7199 44.328 40.6589 44.3631C40.7762 44.3004 40.8938 44.2405 41.0118 44.1836C41.0325 44.1731 41.0533 44.1627 41.0744 44.1523H41.0743Z" fill="#FFC700" fill-opacity="0.55"/>
<path d="M40.6042 44.3525C40.661 44.3222 40.7182 44.2917 40.7779 44.2622C40.7105 44.2933 40.6432 44.325 40.5755 44.3576C40.5257 44.3822 40.4765 44.4073 40.4279 44.4329C40.3871 44.4559 40.3468 44.4791 40.3076 44.5024C40.4067 44.4507 40.5056 44.4008 40.6042 44.3525Z" fill="#FFC700" fill-opacity="0.55"/>
<path d="M40.428 44.4331C40.446 44.4229 40.4647 44.413 40.483 44.4028C40.325 44.4806 40.166 44.5627 40.0064 44.6487C39.9602 44.6787 39.9162 44.7092 39.8732 44.7397C39.9843 44.6765 40.0951 44.6156 40.2055 44.5566C40.2779 44.514 40.3521 44.4729 40.428 44.4331Z" fill="#FFC700" fill-opacity="0.55"/>
<path d="M39.6506 44.8464C39.6628 44.8448 39.6746 44.8436 39.6869 44.842C39.717 44.8188 39.7478 44.7959 39.7792 44.7734C39.7364 44.7975 39.6937 44.8218 39.6506 44.8464Z" fill="#FFC700" fill-opacity="0.55"/>
<path d="M40.7142 44.3484C40.7233 44.343 40.7328 44.3375 40.7421 44.332C40.691 44.3598 40.64 44.3878 40.5892 44.4168C40.5464 44.4427 40.5048 44.4693 40.4634 44.4962C40.5234 44.4601 40.5837 44.4249 40.6443 44.3904C40.6676 44.3766 40.6904 44.3622 40.7142 44.3484Z" fill="#FFC700" fill-opacity="0.55"/>
<path d="M39.6692 45.1084C39.6589 45.1187 39.6493 45.1288 39.6393 45.1391C39.6511 45.1288 39.6631 45.1187 39.675 45.1084H39.6692Z" fill="#FFC700" fill-opacity="0.55"/>
<path d="M39.5731 45.1715C39.598 45.1502 39.6229 45.1292 39.6482 45.1084H39.6337C39.6132 45.1293 39.5929 45.1503 39.5731 45.1715Z" fill="#FFC700" fill-opacity="0.55"/>
<path d="M40.883 44.2544C40.883 44.2544 40.882 44.2548 40.8816 44.255C40.8813 44.2553 40.8811 44.2554 40.8808 44.2555C40.8816 44.255 40.8822 44.2548 40.8828 44.2544H40.883Z" fill="#FFC700" fill-opacity="0.55"/>
<path d="M40.6515 44.3604C40.5932 44.391 40.5352 44.4224 40.477 44.4544C40.4223 44.4876 40.3685 44.5212 40.3165 44.5553C40.386 44.5146 40.4555 44.4748 40.5251 44.436C40.567 44.4107 40.6081 44.3851 40.6515 44.3604Z" fill="#FFC700" fill-opacity="0.55"/>
<path d="M40.7807 44.3056C40.8128 44.2878 40.8452 44.2703 40.878 44.2529C40.7683 44.3085 40.6589 44.3667 40.5501 44.4275C40.4998 44.458 40.4506 44.4889 40.4022 44.5203C40.4363 44.5001 40.4703 44.4803 40.5044 44.4607C40.5931 44.4064 40.6849 44.355 40.7807 44.3057V44.3056Z" fill="#FFC700" fill-opacity="0.55"/>
<path d="M40.9127 44.2451C40.943 44.2287 40.9738 44.2127 41.0047 44.1968C40.9901 44.2035 40.9754 44.2102 40.961 44.2169C40.9127 44.2413 40.8645 44.266 40.8164 44.2913C40.7821 44.3102 40.7476 44.3288 40.7141 44.3481C40.6966 44.3587 40.6797 44.3694 40.6625 44.3799C40.7453 44.3333 40.8288 44.2885 40.9126 44.245L40.9127 44.2451Z" fill="#FFC700" fill-opacity="0.55"/>
<path d="M40.821 44.286C40.8282 44.2818 40.8354 44.278 40.8427 44.2739C40.8217 44.2844 40.8014 44.2949 40.7808 44.3054C40.761 44.3165 40.7416 44.3278 40.7219 44.3392C40.755 44.3213 40.788 44.3033 40.8211 44.286H40.821Z" fill="#FFC700" fill-opacity="0.55"/>
<path d="M40.0346 44.6069C39.9413 44.6545 39.8477 44.7034 39.7538 44.7535C39.7116 44.7826 39.6716 44.8119 39.6331 44.8415C39.7152 44.7953 39.7974 44.7488 39.8792 44.7048C39.9296 44.6715 39.9812 44.6387 40.0346 44.6069Z" fill="#FFC700" fill-opacity="0.55"/>
<path d="M39.5341 44.8126C39.6547 44.7513 39.775 44.6911 39.8939 44.6335C39.9477 44.6015 40.0033 44.5694 40.0623 44.5376C39.9345 44.5961 39.8058 44.6566 39.6757 44.7192C39.6259 44.7506 39.5783 44.7816 39.5341 44.8126Z" fill="#FFC700" fill-opacity="0.55"/>
<path d="M39.7759 44.7061C39.6714 44.7586 39.5667 44.812 39.4611 44.8674C39.4806 44.8654 39.5014 44.8631 39.522 44.8609C39.5595 44.8407 39.5967 44.8214 39.6341 44.8016C39.6788 44.7697 39.7263 44.7378 39.776 44.7061H39.7759Z" fill="#FFC700" fill-opacity="0.55"/>
<path d="M39.2016 45.5278C39.1978 45.5317 39.1939 45.5354 39.19 45.5393C39.1783 45.559 39.167 45.5787 39.156 45.5986C39.1761 45.5778 39.1964 45.5574 39.2168 45.5369C39.2115 45.5338 39.2067 45.5308 39.2016 45.5278Z" fill="#FFC700" fill-opacity="0.55"/>
<path d="M39.5262 45.1079C39.525 45.1079 39.5238 45.1079 39.5226 45.1079C39.5197 45.1111 39.517 45.1141 39.5142 45.1172C39.5182 45.1141 39.5221 45.1111 39.5262 45.108V45.1079Z" fill="#FFC700" fill-opacity="0.55"/>
<path d="M40.5792 44.351C40.6487 44.3147 40.7205 44.2789 40.7945 44.2437C40.6269 44.3179 40.4584 44.3958 40.2883 44.4788C40.2237 44.515 40.1613 44.5514 40.1016 44.5883C40.2618 44.5051 40.4209 44.4258 40.5791 44.3509L40.5792 44.351Z" fill="#FFC700" fill-opacity="0.55"/>
<path d="M39.5638 45.1084C39.5582 45.1084 39.5526 45.1084 39.547 45.1084C39.5179 45.1307 39.4887 45.1534 39.4597 45.176C39.4368 45.2015 39.4147 45.2271 39.3934 45.2527C39.4388 45.2156 39.4844 45.1792 39.5301 45.1433C39.5411 45.1315 39.5526 45.1201 39.5638 45.1084Z" fill="#FFC700" fill-opacity="0.55"/>
<path d="M39.3823 45.3394C39.4329 45.2934 39.4837 45.2483 39.535 45.204C39.5547 45.1814 39.5746 45.1591 39.5947 45.1372C39.5457 45.1776 39.497 45.2188 39.4488 45.2606C39.4264 45.2868 39.4034 45.3128 39.3823 45.3394Z" fill="#FFC700" fill-opacity="0.55"/>
<path d="M39.5915 45.1084C39.5854 45.1133 39.5792 45.1184 39.573 45.1234C39.5462 45.1513 39.5188 45.1789 39.4937 45.2073C39.5336 45.174 39.5739 45.1412 39.6143 45.1087C39.6064 45.1087 39.5995 45.1085 39.5917 45.1084H39.5915Z" fill="#FFC700" fill-opacity="0.55"/>
<path d="M39.6316 45.1328C39.5957 45.1635 39.5599 45.1944 39.5243 45.2259C39.4986 45.2546 39.4715 45.2827 39.447 45.312C39.4843 45.2774 39.5217 45.2435 39.5594 45.2097C39.5833 45.184 39.6069 45.1581 39.6316 45.1328Z" fill="#FFC700" fill-opacity="0.55"/>
<path d="M39.3925 45.2099C39.415 45.1834 39.4385 45.1572 39.4627 45.1313C39.4211 45.1621 39.3794 45.1927 39.3381 45.2242C39.3177 45.2489 39.2982 45.2737 39.2798 45.2988C39.3173 45.2689 39.3548 45.239 39.3926 45.2099H39.3925Z" fill="#FFC700" fill-opacity="0.55"/>
<path d="M39.383 45.1716C39.4125 45.15 39.442 45.1281 39.4715 45.1068C39.4621 45.1066 39.4527 45.1062 39.4434 45.106C39.4225 45.1277 39.4024 45.1495 39.383 45.1716Z" fill="#FFC700" fill-opacity="0.55"/>
<path d="M39.4185 44.8442C39.3961 44.8553 39.3734 44.8669 39.3509 44.8782C39.3587 44.8776 39.3675 44.8767 39.3755 44.8759C39.3895 44.8654 39.4038 44.8549 39.4186 44.8443L39.4185 44.8442Z" fill="#FFC700" fill-opacity="0.55"/>
<path d="M40.467 44.4377C40.5932 44.3715 40.7191 44.3083 40.8449 44.248C40.9174 44.2111 40.9927 44.1754 41.0688 44.1401C40.9322 44.2006 40.795 44.2647 40.6576 44.3322C40.5926 44.3668 40.5283 44.4019 40.467 44.4377Z" fill="#FFC700" fill-opacity="0.55"/>
<path d="M40.1472 44.5139C40.3571 44.4159 40.5646 44.3229 40.769 44.2368C40.8476 44.201 40.9296 44.1658 41.0134 44.1309C40.7985 44.2157 40.5801 44.3066 40.3583 44.4042C40.2849 44.4406 40.2145 44.4771 40.1472 44.5139Z" fill="#FFC700" fill-opacity="0.55"/>
<path d="M40.9756 44.1256C40.7986 44.1906 40.6185 44.2594 40.4357 44.3313C40.3411 44.3721 40.2513 44.4129 40.1663 44.4535C40.3426 44.3796 40.5173 44.3081 40.6888 44.2408C40.7803 44.2023 40.876 44.1639 40.9754 44.1255L40.9756 44.1256Z" fill="#FFC700" fill-opacity="0.55"/>
<path d="M39.8011 44.6438C39.9465 44.5765 40.0904 44.5116 40.2332 44.4491C40.3036 44.414 40.3769 44.3787 40.4535 44.3438C40.3016 44.4065 40.1478 44.4719 39.9922 44.54C39.9252 44.5748 39.8611 44.6094 39.8011 44.6438Z" fill="#FFC700" fill-opacity="0.55"/>
<path d="M40.9154 44.2483C40.9777 44.2154 41.0405 44.1835 41.1036 44.1523C41.0919 44.1575 41.0801 44.1627 41.0686 44.1679C41.0042 44.1996 40.9403 44.2323 40.8765 44.2661C40.8446 44.2838 40.8129 44.3019 40.7816 44.3205C40.8203 44.2991 40.8591 44.2781 40.8982 44.2574C40.9038 44.2543 40.9097 44.2513 40.9154 44.2483Z" fill="#FFC700" fill-opacity="0.55"/>
<path d="M40.9434 44.1888C40.8806 44.2184 40.8172 44.2479 40.7571 44.2784C40.8729 44.2237 40.9885 44.1716 41.1036 44.1216C41.0498 44.1436 40.9965 44.1659 40.9434 44.1888Z" fill="#FFC700" fill-opacity="0.55"/>
<path d="M39.6513 44.6372C39.8555 44.5521 40.0572 44.4701 40.2548 44.3925C40.3661 44.3438 40.486 44.2947 40.6125 44.2451C40.3849 44.3286 40.1516 44.4176 39.9142 44.5104C39.8192 44.5536 39.7313 44.5957 39.6512 44.6372H39.6513Z" fill="#FFC700" fill-opacity="0.55"/>
<path d="M39.2662 45.125C39.2131 45.1594 39.16 45.194 39.1069 45.2292C39.1028 45.2357 39.0993 45.2422 39.0956 45.2485C39.1013 45.2518 39.1083 45.2548 39.1144 45.258C39.1466 45.2359 39.1788 45.2138 39.2109 45.192C39.2283 45.1697 39.2467 45.1474 39.2663 45.125H39.2662Z" fill="#FFC700" fill-opacity="0.55"/>
<path d="M39.1537 45.5558C39.1614 45.5412 39.1699 45.5271 39.1782 45.5128C39.1764 45.5116 39.1744 45.5105 39.1727 45.5093C39.1546 45.5263 39.1366 45.5437 39.1185 45.561C39.1101 45.5785 39.1021 45.5961 39.0942 45.6137C39.1139 45.5941 39.134 45.5752 39.1537 45.5558Z" fill="#FFC700" fill-opacity="0.55"/>
<path d="M39.2435 44.8863C39.2624 44.8851 39.2825 44.8837 39.3029 44.882C39.3711 44.8486 39.4389 44.8161 39.5064 44.7837C39.5559 44.7512 39.6094 44.7185 39.6661 44.6855C39.5319 44.7466 39.3968 44.809 39.2602 44.8737C39.2546 44.8779 39.2491 44.8821 39.2436 44.8863H39.2435Z" fill="#FFC700" fill-opacity="0.55"/>
<path d="M40.8518 44.2842C40.8583 44.2806 40.8645 44.2766 40.8711 44.2731C40.8245 44.2983 40.7781 44.3242 40.732 44.3503C40.7187 44.3585 40.7054 44.3667 40.692 44.3751C40.6877 44.3776 40.6834 44.3802 40.6789 44.3828C40.7465 44.3433 40.8149 44.3054 40.8837 44.2681C40.8731 44.2735 40.8626 44.2786 40.8519 44.2842H40.8518Z" fill="#FFC700" fill-opacity="0.55"/>
<path d="M40.0377 44.4912C39.862 44.5635 39.6838 44.6387 39.5033 44.7169C39.4479 44.7485 39.3969 44.7796 39.3505 44.8102C39.5065 44.7392 39.6606 44.6703 39.8132 44.6037C39.8834 44.5665 39.9583 44.5291 40.0377 44.4913V44.4912Z" fill="#FFC700" fill-opacity="0.55"/>
<path d="M40.6052 44.3137C40.5362 44.3472 40.4696 44.3809 40.4052 44.415C40.5784 44.3337 40.7499 44.2574 40.9199 44.185C40.974 44.1606 41.0289 44.1363 41.0852 44.1123C41.0521 44.1252 41.0192 44.1382 40.9863 44.1512C40.8602 44.2032 40.7334 44.2571 40.6052 44.3137Z" fill="#FFC700" fill-opacity="0.55"/>
<path d="M40.2772 44.6111C40.3119 44.5862 40.347 44.5616 40.3824 44.5381C40.3494 44.558 40.3166 44.5778 40.2838 44.5983C40.2436 44.626 40.2055 44.6546 40.1668 44.6831C40.2036 44.6589 40.2403 44.6347 40.2772 44.6111Z" fill="#FFC700" fill-opacity="0.55"/>
<path d="M39.988 44.7562C40.0364 44.7254 40.0846 44.6952 40.1331 44.6655C40.1855 44.6284 40.239 44.5926 40.2933 44.5581C40.2332 44.5926 40.1733 44.6283 40.1134 44.6644C40.0704 44.6945 40.0287 44.7252 39.988 44.7561V44.7562Z" fill="#FFC700" fill-opacity="0.55"/>
<path d="M40.0164 44.5875C39.9636 44.6184 39.9124 44.6492 39.8638 44.6804C39.9739 44.6238 40.0828 44.5705 40.1917 44.5173C40.2942 44.4615 40.4011 44.4077 40.5113 44.356C40.348 44.4293 40.1829 44.5064 40.0163 44.5875H40.0164Z" fill="#FFC700" fill-opacity="0.55"/>
<path d="M40.8179 44.2707C40.8262 44.2663 40.8342 44.2618 40.8428 44.2573C40.7808 44.2868 40.7198 44.3168 40.66 44.3479C40.6327 44.363 40.6049 44.378 40.5782 44.3933C40.6581 44.3509 40.738 44.3105 40.8179 44.2707Z" fill="#FFC700" fill-opacity="0.55"/>
<path d="M40.66 44.348C40.6976 44.3271 40.736 44.3065 40.7749 44.2861C40.6419 44.3517 40.5087 44.4208 40.3756 44.4934C40.321 44.5267 40.2675 44.5603 40.2158 44.5945C40.2948 44.5487 40.3738 44.5046 40.4528 44.4614C40.5204 44.4223 40.5894 44.3846 40.66 44.348Z" fill="#FFC700" fill-opacity="0.55"/>
<path d="M40.2248 44.6174C40.1792 44.6489 40.1347 44.6809 40.0913 44.7131C40.1505 44.6749 40.2099 44.6371 40.2695 44.6005C40.3129 44.5706 40.3569 44.5408 40.4022 44.5117C40.3429 44.5463 40.2838 44.5815 40.2248 44.6175V44.6174Z" fill="#FFC700" fill-opacity="0.55"/>
<path d="M40.579 44.4454C40.5627 44.4558 40.5468 44.4664 40.5306 44.4768C40.5749 44.4491 40.6201 44.4227 40.665 44.396C40.6366 44.4128 40.6072 44.428 40.579 44.4454Z" fill="#FFC700" fill-opacity="0.55"/>
<path d="M40.8318 44.2896C40.7544 44.3312 40.6776 44.3748 40.6011 44.4192C40.5769 44.4348 40.553 44.4506 40.5294 44.4663C40.5742 44.4394 40.619 44.4123 40.6643 44.3864C40.7192 44.3534 40.7751 44.3212 40.8318 44.2896Z" fill="#FFC700" fill-opacity="0.55"/>
<path d="M40.4992 44.479C40.45 44.5086 40.4011 44.539 40.3523 44.5696C40.3025 44.6037 40.2529 44.6378 40.2049 44.673C40.262 44.6347 40.3194 44.5973 40.3772 44.5606C40.4175 44.5332 40.4577 44.5056 40.4992 44.479Z" fill="#FFC700" fill-opacity="0.55"/>
<path d="M40.4301 44.5352C40.4655 44.5116 40.5008 44.4879 40.537 44.4648C40.5212 44.4744 40.5054 44.4838 40.4897 44.4932C40.4697 44.5071 40.4498 44.5212 40.4301 44.5351V44.5352Z" fill="#FFC700" fill-opacity="0.55"/>
<path d="M40.3065 44.5236C40.3538 44.4944 40.4011 44.4652 40.451 44.4365C40.3661 44.4802 40.2811 44.525 40.196 44.5714C40.1477 44.6019 40.1014 44.6329 40.0559 44.664C40.1395 44.6159 40.2231 44.5692 40.3065 44.5236Z" fill="#FFC700" fill-opacity="0.55"/>
<path d="M15.4025 18.0818C15.4025 16.8382 16.3599 15.8796 17.6018 15.8796C18.8438 15.8796 19.8012 16.8382 19.8012 18.0818C19.8012 19.3253 18.8438 20.2838 17.6018 20.2838C16.3599 20.2838 15.4025 19.3252 15.4025 18.0818ZM12.4915 18.0818C12.4915 20.7372 14.6391 22.8745 17.6018 22.8745C20.5646 22.8745 22.7122 20.7372 22.7122 18.0818C22.7122 15.4263 20.5646 13.2891 17.6018 13.2891C14.6391 13.2891 12.4915 15.4264 12.4915 18.0818Z" fill="white"/>
<path d="M24.3945 22.6156H27.3055V18.2762L30.6692 22.6156H33.192V13.5483H30.2812V17.8877L26.9174 13.5483H24.3946V22.6156H24.3945Z" fill="white"/>
<path d="M37.0737 22.6152H39.9847V16.2033H42.3782V13.5479H34.6804V16.2033H37.0738L37.0737 22.6152Z" fill="white"/>
<path d="M43.8663 22.6156H47.4888C50.335 22.6156 52.405 20.5302 52.405 18.082C52.405 15.6338 50.335 13.5483 47.4888 13.5483H43.8663V22.6156ZM46.7772 20.1545V16.0094H47.4242C48.6662 16.0094 49.4942 16.8384 49.4942 18.082C49.4942 19.3256 48.6662 20.1545 47.4242 20.1545H46.7772Z" fill="white"/>
<path d="M54.0875 22.6152H61.3971V20.2188H56.9983V19.1178H60.2327V17.0453H56.9983V15.9443H61.2677V13.5479H54.0873V22.6151L54.0875 22.6152Z" fill="white"/>
<path d="M63.144 22.6156H66.055V20.4136L66.8312 19.5068L68.7718 22.6156H72.0709L68.7718 17.3048L71.8121 13.5483H68.5777L66.0549 16.6571V13.5483H63.1439V22.6156H63.144Z" fill="white"/>
<path d="M12.9896 36.7572H16.5399C19.3294 36.7572 21.3581 34.6718 21.3581 32.2236C21.3581 29.7754 19.3294 27.6899 16.5399 27.6899H12.9896V36.7572ZM15.8426 34.2961V30.151H16.4765C17.6938 30.151 18.5053 30.98 18.5053 32.2236C18.5053 33.4672 17.6938 34.2961 16.4765 34.2961H15.8426Z" fill="white"/>
<path d="M23.0062 36.7573H30.1702V34.3609H25.8592V33.2599H29.0291V31.1874H25.8592V30.0863H30.0434V27.6899H23.0062V36.7572V36.7573Z" fill="white"/>
<path d="M12.1655 49.6039C12.4317 49.9018 12.7614 50.1609 13.1292 50.3811C13.7759 50.7826 14.6888 51.1583 15.906 51.1583C18.1883 51.1583 19.5831 49.7334 19.5831 48.179C19.5831 45.2644 15.589 45.4458 15.589 44.4225C15.589 44.1634 15.8426 43.9692 16.3499 43.9692C16.7936 43.9692 17.1106 44.1376 17.3515 44.293C17.4783 44.3836 17.5925 44.5002 17.6811 44.6168L19.3295 42.8681C19.1139 42.6221 18.8477 42.4148 18.5306 42.2204C17.9855 41.8966 17.1866 41.5728 16.0328 41.5728C13.8011 41.5728 12.4825 42.92 12.4825 44.4225C12.4825 47.337 16.4765 47.1556 16.4765 48.179C16.4765 48.5028 16.2356 48.7619 15.5889 48.7619C15.0818 48.7619 14.638 48.5546 14.3209 48.3085C14.1307 48.179 13.9659 48.0235 13.8138 47.8552L12.1655 49.6039Z" fill="white"/>
<path d="M27.7209 47.5314C27.556 47.7256 27.3532 47.894 27.1376 48.0495C26.7699 48.3085 26.2247 48.5676 25.5654 48.5676C24.2974 48.5676 23.3465 47.609 23.3465 46.3656C23.3465 45.1221 24.2974 44.1635 25.5654 44.1635C26.2247 44.1635 26.7573 44.4226 27.1122 44.6816C27.3278 44.8371 27.5053 45.0055 27.6575 45.1998L29.3693 43.3216C29.1029 42.9977 28.786 42.7128 28.4056 42.4537C27.7589 42.0003 26.808 41.5728 25.502 41.5728C22.5984 41.5728 20.4935 43.7101 20.4935 46.3655C20.4935 49.0208 22.5984 51.1581 25.502 51.1581C26.808 51.1581 27.7843 50.7437 28.4436 50.2902C28.8366 50.0312 29.1663 49.7332 29.4327 49.4094L27.7209 47.5311V47.5314Z" fill="white"/>
<path d="M30.7234 50.8993H33.5764V47.5963H36.2391V50.8993H39.092V41.832H36.2391V45.0056H33.5764V41.832H30.7234V50.8993Z" fill="white"/>
<path d="M43.5527 46.3655C43.5527 45.1219 44.4909 44.1634 45.7082 44.1634C46.9254 44.1634 47.8637 45.122 47.8637 46.3655C47.8637 47.6089 46.9254 48.5675 45.7082 48.5675C44.4909 48.5675 43.5527 47.6089 43.5527 46.3655ZM40.6997 46.3655C40.6997 49.0209 42.8046 51.1581 45.7082 51.1581C48.6118 51.1581 50.7165 49.0209 50.7165 46.3655C50.7165 43.71 48.6117 41.5728 45.7082 41.5728C42.8047 41.5728 40.6997 43.7101 40.6997 46.3655Z" fill="white"/>
<path d="M54.67 46.3655C54.67 45.1219 55.6083 44.1634 56.8256 44.1634C58.0428 44.1634 58.9811 45.122 58.9811 46.3655C58.9811 47.6089 58.0428 48.5675 56.8256 48.5675C55.6083 48.5675 54.67 47.6089 54.67 46.3655ZM51.8172 46.3655C51.8172 49.0209 53.9221 51.1581 56.8256 51.1581C59.7291 51.1581 61.834 49.0209 61.834 46.3655C61.834 43.71 59.7292 41.5728 56.8256 41.5728C53.922 41.5728 51.8172 43.7101 51.8172 46.3655Z" fill="white"/>
<path d="M63.4419 50.8993H66.2947V46.5599L69.5915 50.8993H72.0639V41.832H69.211V46.1714L65.9143 41.832H63.4418V50.8993H63.4419Z" fill="white"/>
<path d="M13.009 65.0409H15.9199V60.1834L18.1194 62.9684L20.3188 60.1834V65.0409H23.2297V55.9736H20.6422L18.1194 59.212L15.5966 55.9736H13.0091L13.009 65.0409Z" fill="white"/>
<path d="M28.5345 61.2844L29.2461 58.7586H29.3108L30.0225 61.2844H28.5346H28.5345ZM24.3298 65.0409H27.4348L27.9523 63.2922H30.6045L31.122 65.0409H34.227L30.928 55.9736H27.629L24.3298 65.0409Z" fill="white"/>
<path d="M38.4321 61.2844L39.1438 58.7586H39.2085L39.9201 61.2844H38.4323H38.4321ZM34.2275 65.0409H37.3325L37.85 63.2922H40.5022L41.0197 65.0409H44.1247L40.8256 55.9736H37.5266L34.2276 65.0409H34.2275Z" fill="white"/>
<path d="M45.2248 65.0409H48.1358V62.8389L48.912 61.9321L50.8526 65.0409H54.1516L50.8526 59.7301L53.8929 55.9736H50.6584L48.1356 59.0824V55.9736H45.2247V65.0409H45.2248Z" fill="white"/>
</g>
<defs>
<clipPath id="clip0_17_2391">
<rect width="85" height="88" fill="white"/>
</clipPath>
</defs>
</svg>
