<?xml version="1.0" encoding="UTF-8"?>
<svg version="1.1" xmlns="http://www.w3.org/2000/svg" width="16" height="16">
<path d="M0 0 C3.96 0 7.92 0 12 0 C12 5.28 12 10.56 12 16 C10.68 15.67 9.36 15.34 8 15 C3.9595774 14.83830958 3.9595774 14.83830958 0 16 C0 10.72 0 5.44 0 0 Z M1 2 C0.92755947 4.01964199 0.91622812 6.04167124 0.9375 8.0625 C0.94652344 9.16722656 0.95554688 10.27195312 0.96484375 11.41015625 C0.97644531 12.26480469 0.98804688 13.11945312 1 14 C1.99 13.34 2.98 12.68 4 12 C6.63434254 12.32126128 8.62710097 12.81355048 11 14 C11.02686553 12.02090602 11.04633375 10.04171029 11.0625 8.0625 C11.07410156 6.96035156 11.08570313 5.85820312 11.09765625 4.72265625 C11.31262571 2.08552366 11.31262571 2.08552366 10 1 C8.12678052 0.83946185 8.12678052 0.83946185 6 0.875 C5.278125 0.87242188 4.55625 0.86984375 3.8125 0.8671875 C1.97910585 0.80304724 1.97910585 0.80304724 1 2 Z " fill="#FFFFFF" transform="translate(2,0)"/>
</svg>
